<?xml version="1.0" encoding="UTF-8"?>
<svg version="1.1" viewBox="0 0 1600 1600" width="500" height="500" xmlns="http://www.w3.org/2000/svg">
<path transform="translate(792,303)" d="m0 0h28l21 1 1 1 23 2 16 4 13 3 13 4 12 3 9 4 7 2 10 4 6 3 3 3 9 4 13 3 63 1 4 1 1 2v39l2 10 3 6 8 8 5 3 4 6 9 9 8 11 10 11 24 40 7 16 3 6 4 9 6 14 6 19 1 7 2 5 1 8 2 3v13l3 1 1 24 2 1 1 13v43l-1 15-2 3-1 18-2 6-1 10-2 3-2 10-5 13-2 5-2 10-8 17-5 13-6 9-5 12-3 3-6 12-4 5-4 7-9 12-3 3-4 7-4 2-2-1v5l-12 12-3 6-3 3-5 2-3 1v5l-8 5-13 13-7 4-6 5-11 6-8 6-13 8-19 10-11 4-14 7-11 4-9 3-8 3-9 2-13 3-1 1-13 2-6 1-15 3-7 1h-64l-2-2h-9l-18-2-23-6-17-5-8-2-8-4-8-2-10-4-8-4-2-4-5 1-11-6-9-6-17-8-11-9-5-3-10-7-10-9-5-3-22-22-2-10 3-10 12-33 2-9-5 1-9 22-7 20-11 21-9 13-8 10-11 11-5 1-2 4-6 5-13 4-5-3-8-9-15-20-10-14-10-13-12-17-13-18-11-15-4-6-6-7-2-6 6-5 12-6 9-7 8-9 8-13 11-23 5-12 4-6 5-10 8-14 9-14 1-9-7 1-4 3-1-1-1-12-2-2v-43l2-3 1-22 2-4 1-11 2-4 2-14 4-8 3-9 3-10 4-10 7-18 12-23 6-10 6-9 5-8 7-10 12-16 3-5 7-7 7-8 29-29 9-7 13-10 3-3 1-2 12-6 10-6 14-8 12-6 5-4 6-1 9-5 7-2 8-4 18-5 3-2 7-2 2-1 10-1 2-2 14-1 10-3 7-1 1-1z" fill="#AEE6FD"/>
<path transform="translate(1015,516)" d="m0 0 9 2 4 8 1 4 4 2 4 11 17 9v2l12 6 11 7v2l5 1 5 3 2 3v40l-1 67-7-6-14-14-5-4-7-8-3-3-4 1-9 13-5 6h-2l-2 5-6 8-5 6-3 4h-2l-2 5-9 10-5 5-7 8-11 11-9 7-10 6-5 2h-13l-16-7-16-10-17-14-12-12-7-5-4 2-5 5-5 4h-3l-2 4-8 7-6 5-7 8-45 45-8 7-11 10-15 10-6 3-8 2h-19l-13-4-13-7-9-7-12-12-9-11-11-15-8-14v-2l-3-1v-2l-10 4-2 3-3 1-2 3-4 2-5 5h-2l-2 4-8 8-8 11h-2v3h-2v3h-2v3h-2l-1 5h-2l-1 5-6 11-4 7-3 7-3 10-7 17-7 20-11 21-9 13-8 10-11 11-5 1-2 4-6 5-13 4-5-3-8-9-15-20-10-14-10-13-12-17-13-18-11-15-4-6-6-7-2-6 6-5 12-6 9-7 8-9 8-13 11-23 5-12 4-6 5-10 8-14 8-12 2-1 4-8 14-17 10-11 14-11 10-6 16-5 4-1h24l16 4 22 12 12 9 11 9 16 15 8 7 10 9 4 5 9-3 8-6 13-13 7-8 4-5 8-7 15-15 8-7 12-10 15-10 14-7 8-2 9-1h9l16 4 5 3 6 2 9 5 16 10 14 10 4 1 8-3 9-8 13-17 13-18 11-16 12-17 1-1v-5l-10-9-9-9-8-7-3-4 10-2 33-4z" fill="#73CC0F"/>
<path transform="translate(1042,671)" d="m0 0h1v224l6-1v2h-2v5l-8 5-13 13-7 4-6 5-11 6-8 6-13 8-19 10-11 4-14 7-11 4-9 3-8 3-9 2-13 3-1 1-13 2-6 1-15 3-7 1h-64l-2-2h-9l-18-2-23-6-17-5-8-2-8-4-8-2-10-4-8-4-2-4-5 1-11-6-9-6-17-8-11-9-5-3-10-7-10-9-5-3-22-22-2-10 3-10 12-33 15-30 8-14 8-11 9-11 7-7 11-9 7-5h2l7 12 10 14 1 5 5 2 16 17 10 9 3 2v2l15 6 9 2 9 1h10l13-3 16-8 13-10 11-9 11-11 5-4 1-2h2l2-4 51-51 10-7h5l16 16 3 1 8 8 13 9 14 7 10 3h15l10-4 12-8 11-10 5-4 7-8 9-9 9-11 11-13 10-13z" fill="#AFE6FD"/>
<path transform="translate(792,303)" d="m0 0h28l21 1 1 1 23 2 16 4 13 3 13 4 12 3 9 4 7 2 10 4 6 3 3 3 9 4 13 3v1l-26 1-5 1-43 43-1 51-1 83h-1l-1-26-1 3-2 37-1 29-2-3-1-3-2-1-1-3-1 5-4-5-2-1v2l-4 2-4-3v-8h5l1-2v2h8l1-5 1-3v-24l1-8h-2l2-29-1 4-1 10h-2l-1 2-2-2-2 2h-3l4 4v7l-7 1-1 5-1 3h-2v6h-2l1 2v12l-1 3v8l1 7v5l-4-4-1 4-3 9-2 10-3-1-1-5-1-2-1-9 1-14 2-14-2-7v-11l-9-5-3 1h-9l-5-2-27-1-12-1h-10v1l-12 1h-3l-11 1-13 3-15 8-13 8-16 10-4 3-2 9v59l-1 24-3 1v7l-2-1-2 5-9-1v4l-4 1-4-11v-15h-2l-1-22-2-3-1-17h-55l-23-1h-25l-10 4-17 11-11 7-11 8-5 6-2 7-1 8h-2l-2 4-2-2-2 8-4-1-1-6h-4l-1 7-4 4-2-2-2-7-1 4-4 4h-2v-20l2-3 1-22 2-4 1-11 2-4 2-14 4-8 3-9 3-10 4-10 7-18 12-23 6-10 6-9 5-8 7-10 12-16 3-5 7-7 7-8 29-29 9-7 13-10 3-3 1-2 12-6 10-6 14-8 12-6 5-4 6-1 9-5 7-2 8-4 18-5 3-2 7-2 2-1 10-1 2-2 14-1 10-3 7-1 1-1z" fill="#B0D5FD"/>
<path transform="translate(1043,348)" d="m0 0h1v39l2 10 3 6 8 8 5 3 4 6 9 9 8 11 10 11 24 40 7 16 3 6 4 9 6 14 6 19 1 7 2 5 1 8 2 3v13l3 1 1 24 2 1 1 13v43l-1 15-2 3-1 18-2 6-1 10-2 3-2 10-5 13-2 5-2 10-8 17-5 13-6 9-5 12-3 3-6 12-4 5-4 7-9 12-3 3-4 7-4 2-2-1v5l-12 12-3 6-3 3-6 2h-6l-1 2v-225l-12 15-9 11-12 14-12 12-5 6-8 7-12 9-11 6-4 1h-15l-15-5-14-8-10-8-3-3-3-2v-2l-4-1-15-15-7 1-11 9-7 7-4 5-8 7-30 30-1 2h-2l-2 4-12 11-11 10-18 13-16 8-11 2h-10l-13-2-13-4-7-4-5-5-10-9-8-8-7-8-5-2-2-6-14-21-1-4-9 6-14 12-10 11-10 14-9 15-9 19-3 7-1-3v-3l-6 1 1-5 4-9 6-11 5-10h2l1-5h2v-3h2v-3h2v-3l4-4 8-10 16-16 3-1 2-3h3l2-4 7-3h3l4 5 8 14 14 19 15 16 8 7 14 8 7 3 8 2h19l10-3 12-7 10-8 13-12 10-9 43-43 6-7 9-7 3-4 5-3 6-4 5-5 5 3 10 9 8 8 17 13 17 10 12 5h13l5-2 13-8 15-14 7-7 5-7 6-5 6-8 5-6 3-4h2l2-5 7-10 5-5 12-16 4 1 34 34 1-66v-40l-3-4-8-3v-2l-5-2-9-6-6-3-3-2v-2l-6-2-12-7-4-11-5-5-2-5-1-4-9-1-76 8-14 2v2l7 7 8 7 10 10 4 3v5l-11 15-13 19-13 18-10 13-10 11-7 4-6 1-27-18-12-7-3-2-7-2-6-3-13-3h-9l-14 2-14 6-15 10-10 8-20 18-19 19-16 17-8 8-12 6-4-2-8-9-8-7-12-11-10-9-15-12h-2l-5-5-21-11-16-4h-24l-15 4-12 6-13 10-9 8-9 11-11 14-3 6-1-2 1-9v-4l13-15 14-14h2l2-4 14-10 12-5 12-3 7-1h19l15 3 13 5 21 13 18 14 10 9 3 2v3l4 2 7 7 8 7 5 6 7-6 10-9 3-5 12-12 4-5 8-7 10-10 11-9 8-7 15-11 15-8 13-4 5-1h17l17 4 16 7v2l6 2 23 15 7 5 9-7 4-4 4-7 10-13 11-16 10-14 8-13-6-7-9-8-7-8-15-15 5-2 127-15 3-2v-146z" fill="#AEE6FD"/>
<path transform="translate(554,630)" d="m0 0h24l16 4 22 12 12 9 11 9 16 15 8 7 10 9 4 5h5l-2 4 7 7 11 14 3 4-1 4-5-2-8-3-7-1h-18l-15 5v5l-2-1v-2l-10 4-2 3-3 1-2 3-4 2-5 5h-2l-2 4-8 8-8 11h-2v3h-2v3h-2v3h-2l-1 5h-2l-1 5-6 11-4 7-3 7-3 10-7 17-7 20-11 21-9 13-8 10-11 11-5 1-2 4-6 5-13 4-5-3-8-9-15-20-10-14-10-13-12-17-13-18-11-15-4-6-6-7-2-6 6-5 12-6 9-7 8-9 8-13 11-23 5-12 4-6 5-10 8-14 8-12 2-1 4-8 14-17 10-11 14-11 10-6 16-5z" fill="#73CC0F"/>
<path transform="translate(1042,671)" d="m0 0h1l-1 226-7 7-14 11-13 10-16 11-19 11-28 13-28 10-13 4h-4v-244l5 3 13 9 14 7 10 3h15l10-4 12-8 11-10 5-4 7-8 9-9 9-11 11-13 10-13z" fill="#1477FD"/>
<path transform="translate(852,727)" d="m0 0h1l-1 257-1 1-27 2h-35l-26-3-29-6-25-7-11-4-1-1v-156l5 1 13 4 13 2h10l13-3 16-8 13-10 11-9 11-11 5-4 1-2h2l2-4 35-35z" fill="#1477FD"/>
<path transform="translate(1015,516)" d="m0 0 9 2 4 8 1 4 4 2 4 11 17 9v2l12 6 11 7v2l5 1 5 3 2 3v40l-1 67-7-6-14-14-5-4-7-8-3-3-4 1-9 13-5 6h-2l-2 5-6 8-5 6-3 4h-2l-2 5-9 10-5 5-7 8-11 11-9 7-10 6-5 2h-13l-5-2v-2l-5-2-4-9v-5l12 2 11-4 12-7 14-12 10-11 11-14 11-15 4-8-5-8-1-2v-7l2-7-10-9-9-7-12-11-11-8-4-1-4 3-4 1-3-2v-2l-5 2-10 15-7 11-12 14-9 8-9 3-9 1 5 5h10l9-6 9-9 14-19 7-11 4-3h7l8-2 5 1 10 8 14 12 9 8v13l3 7v7l-7 11-9 11-12 14-11 11-13 9-13 5-7-2-7-7-8-16-4-10-3-2-5-1h-7l-11 3-2-1v-5l-8-6-3-3 6-2-7-2-9 1-3-5-3-7-12-14-9-8-6-4-12-6v-4l2-1h-8l-5 1-6-2-1-5-4-2h-9l-10 4-2-1 12-6 8-2 9-1h9l16 4 5 3 6 2 9 5 16 10 14 10 4 1 8-3 9-8 13-17 13-18 11-16 12-17 1-1v-5l-10-9-9-9-8-7-3-4 10-2 33-4z" fill="#9ADB55"/>
<path transform="translate(950,345)" d="m0 0h89l4 1v159l-4 2-75 9-52 6-4 2 8 7 9 9 7 8 13 12-4 8-7 10-13 19-12 16-7 10h-2v-182l1-51 41-41h2l1-3z" fill="#03D2F4"/>
<path transform="translate(554,630)" d="m0 0h24l16 4 22 12 12 9 11 9 16 15 8 7 10 9 4 5h5l-2 4 7 7 11 14 3 4-1 4-5-2-8-3-7-1h-18l-15 5v5l-2-1v-2l-10 4-2 3-3 1-2 3-4 2-5 5h-2l-2 4-8 8-8 11h-2v3h-2v3h-2v3h-2l-1 5h-2l-1 5-6 11-4 7-3 7-3 10-7 17-7 20-11 21-9 13-8 10-11 11-5 1-2 4-6 5-13 4-5-3-8-9-15-20-10-14-10-13-12-17-13-18-11-15-4-6-6-7-2-6 6-5 12-6 9-7 8-9 8-13 11-23 5-12 4-6 5-10 8-14 8-12 2-1 4-8 14-17 10-11 14-11 10-6 16-5zm24 12-15 1-11 3-13 7-13 11-12 13-10 14-11 18-12 22-18 37-10 17-8 10-7 5 1 4 3 5v8l-3 5 2 5 3 1 2 4 11 14 20 26 10 14 5-1 5-4 5-2 10 1 5 1 7-9 8-16 8-19 12-29 9-19 8-14 12-17 9-11 15-15 17-12 22-11v-3h-7l-14 5-1-9-7-6-4-4h-2l-2-5-1-2h-2v-2l-4-1v-2l-3-3-8-16-4-6-10-4 4-2 7-4-3-2z" fill="#76CD16"/>
<path transform="translate(748,514)" d="m0 0h99l6 2 1 95-2 1-16-7-17-4h-17l-15 4-16 8-10 7-13 10-11 10-8 7-29 29-1 2h-2v-130l4-4 19-12 15-10z" fill="#03E0F5"/>
<path transform="translate(1089,500)" d="m0 0h9l-1 108-2 91-4-1-20-20-8-7-9-10-1-2h-3l-6 10-10 13-8 10-11 13-11 12-7 7-5 6-8 7-12 9-11 6-4 1h-15l-15-5-14-8-10-8-3-3-3-2v-2l-4-1-15-15-7 1-11 9-7 7-4 5-8 7-30 30-1 2h-2l-2 4-12 11-11 10-18 13-16 8-11 2h-10l-13-2-13-4-7-4-5-5-10-9-8-8-7-8-5-2-2-6-14-21-1-4-9 6-14 12-10 11-10 14-9 15-9 19-3 7-1-3v-3l-6 1 1-5 4-9 6-11 5-10h2l1-5h2v-3h2v-3h2v-3l4-4 8-10 16-16 3-1 2-3h3l2-4 7-3h3l4 5 8 14 14 19 15 16 8 7 14 8 7 3 8 2h19l10-3 12-7 10-8 13-12 10-9 43-43 6-7 9-7 3-4 5-3 6-4 5-5 5 3 10 9 8 8 17 13 17 10 12 5h13l5-2 13-8 15-14 7-7 5-7 6-5 6-8 5-6 3-4h2l2-5 7-10 5-5 12-16 4 1 34 34 1-66v-40l-3-4-8-3v-2l-5-2-9-6-6-3-3-2v-2l-6-2-12-7-4-11-5-5-2-5-1-4-9-1-76 8-14 2v2l7 7 8 7 10 10 4 3v5l-11 15-13 19-13 18-10 13-10 11-7 4-6 1-27-18-12-7-3-2-7-2-6-3-13-3h-9l-14 2-14 6-15 10-10 8-20 18-19 19-16 17-8 8-12 6-4-2-8-9-8-7-12-11-10-9-15-12h-2l-5-5-21-11-16-4h-24l-15 4-12 6-13 10-9 8-9 11-11 14-3 6-1-2 1-9v-4l13-15 14-14h2l2-4 14-10 12-5 12-3 7-1h19l15 3 13 5 21 13 18 14 10 9 3 2v3l4 2 7 7 8 7 5 6 7-6 10-9 3-5 12-12 4-5 8-7 10-10 11-9 8-7 15-11 15-8 13-4 5-1h17l17 4 16 7v2l6 2 23 15 7 5 9-7 4-4 4-7 10-13 11-16 10-14 8-13-6-7-9-8-7-8-15-15 5-2 127-15z" fill="#F6FBFD"/>
<path transform="translate(901,739)" d="m0 0 6 2v10l2 9-1 6 1 4 1 19 1 11 1 10 3 16 7 19 12 26 5 7 5 14 2 1 3-8 2-12 1-29 1-9 2-2 3 8 1 1 20 1h12l18-3 13 1 7 4 10 2 2 5v46l-12 11-17 13-18 13-21 12-28 13-28 10-10 3h-6z" fill="#1661FE"/>
<path transform="translate(641,745)" d="m0 0h2l7 12 9 13 1 180-6-2-18-10-25-17-13-11-11-9-7-7-8-7-10-10-1-4 15-41 15-30 8-14 8-11 9-11 7-7 11-9z" fill="#1577FD"/>
<path transform="translate(964,595)" d="m0 0 6 2 13 11 8 7 13 11 7 6-2 7v7l5 9 1 2-9 14-13 17-9 10-7 8-13 11-14 8-9 3-11-2 1 7 3 6 4 3-5-1-16-9-12-9-11-9-12-12-7-5-4 2-5 5-5 4h-3l-2 4-8 7-6 5-7 8-45 45-8 7-11 10-15 10-6 3-8 2h-19l-13-4-13-7-9-7-12-12-9-11-11-15-9-16-1-5 9-4 7-2h18l10 2 12 6 6 7 2 6 1 29 8 3 3 1h13l9-4 11-7 13-11 10-9 8-7 15-14 12-11 7-7 7-8 7-7 11-9 11-10 5-4h2v-2l8-3 7 1 5 2v1l-6 1 8 7 3 2-1 5 7-1 6-2h7l7 2 3 4 9 21 8 9 7 2 13-5 10-7 10-9 13-14 11-14 7-11v-7l-3-7v-13l-12-11-10-8-11-9-7 1-8 1-6 1-7 10-12 17-11 12-7 6-4 2h-10l-6-7 14-2 8-4 9-9 10-13 13-20 4-5h4l3 3 7-3z" fill="#74CC11"/>
<path transform="translate(355,1069)" d="m0 0h77l14 4 8 5 5 5 4 7 2 7v14l-4 10-9 8-9 1 5 5 8 7 4 5 3 11 1 10h5l3-9h10l2 2v16l-4 9-5 7-10 5h-19l-11-4-6-5-5-8-2-5-3-25-2-4-10-3h-3v27l10 2v23l-1 1h-58v-24l9-2v-72l-1-5-7-1-1-1zm52 24-3 1-1 4v24l1 1h9l9-2 5-5 1-3v-9l-4-7-5-3-4-1z" fill="#0A70B9"/>
<path transform="translate(1043,348)" d="m0 0h1v39l2 10 3 6 8 8 5 3 4 6 9 9 8 11 10 11 24 40 7 16 3 6 4 9 6 14 6 19 1 7 2 5 1 8 2 3v13l3 1 1 24 2 1v12l-1 4h1l-1 7-4-5-1-2-3 9-1 9h-3l-1-2-1-14-3 3-3-9 1-3-1-2-2 8-9 5-1-1v-8l1-4-2-4-3 1-2 5-9 3h-4l-3 15-2 5h-1v-134l1-15-49 6h-7v-148z" fill="#B0D5FD"/>
<path transform="translate(852,727)" d="m0 0h1l-1 137-8 6-2 2v-2l-7 2v2l-31 3h-13l-1-2-16-1-5-1h-6l-2-1v-4l-9-1-2-1v2h-2l-2 2-3-5-2-17v-9l1-6v-7l3-5 9-6h2v-3l12-7 12-9 11-9 11-11 5-4 1-2h2l2-4 35-35z" fill="#0F92FC"/>
<path transform="translate(664,1105)" d="m0 0h9l11 3 11 6 8 9 5 11 2 8v21l-4 13-6 9-7 7-12 5-14 2-15-3-7-2 1 15 8 3 1 2v20l-1 1h-54l-1-1v-21l2-2 5-2v-76l-6-3-1-2v-16l1-5h41l2 2h7l7-3zm-8 26-5 3-5 6-1 3v15l3 10 4 5 2 1h8l5-5 3-8v-16l-3-7-4-5z" fill="#0970B9"/>
<path transform="translate(1133,1062)" d="m0 0h44l1 1 1 109 8 2 1 6v15l-4 2h-36l-6-2h-7l-9 3h-18l-10-4-6-4-7-7-7-13-3-12-1-13 5-15 7-11 8-7 9-5 15-2 15 2 6 2 1-12-1-9-6-3-1-5v-17zm-10 68-5 5-3 8v15l3 8 4 5 4 2 6-1 5-5 3-6 1-5v-9l-3-10-4-6-2-1z" fill="#0970B9"/>
<path transform="translate(824,1067)" d="m0 0h13l9 2 10 5h4l3-5h30v50l-1 1h-32l-3-7-5-10-7-4h-9l-8 5-5 8-3 10v21l4 11 8 9 8 3h7l10-3 11-8 4-4 5 1 15 15 3 5-2 4-10 9-14 8-14 4-7 1h-21l-14-3-13-7-10-9-7-10-5-13-3-16v-16l3-15 7-14 8-10 7-7 14-8 4-2z" fill="#0B71BA"/>
<path transform="translate(543,541)" d="m0 0 7 2 2-2 5 1 3 1 3 5 6-5h3l4 1v2l5-1h10l12-1 2 5 3-1 1-4h9v2h-2l-1 4h-2l2 3 6-4 3 1 1 6 11 3 1 1h6l2 1v2l10-1-1 5 1 1v5h-2v2l-6-1 1 1 1 2-11 1h11l7-1 5-1 3 3h3l-1 4 9 1 1-2 4 11v3h2l2-12 2-5h1l1 10v7l2 3 1 11-1 24-3 1v7l-2-1-2 5-9-1v4l-4 1-4-11v-15h-2l-1-22-2-3-1-17h-55l-23-1h-25l-10 4-17 11-11 7-11 8-5 6-2 7-1 8h-2l-2 4-2-2-2 8-4-1-1-6h-4l-1 7-4 4-2-2-2-7-1 4-4 4h-2v-20l2-3 1-22 2-4 1-11 2-4 2-14 4-8 2-8 8-4 4 2 1 2v6l6 2v-3l3-1 2 12 5 3 12-4 2-5 4-1v-2l3-2h5l1-3 8-4 1-2-10 5-4-1v-4l6-2z" fill="#AFDBFD"/>
<path transform="translate(1015,516)" d="m0 0 9 2 4 8 1 4 4 2 4 11 17 9v2l12 6 11 7v2l5 1 5 3 2 3v40l-1 67-4-4h2l1-30-6 1-2-1v-2l-4-2-5-5-7-8-5-5-10-9-10-7-3-1h-9l-9-2-11-6-5-6-4-9-5-15-3-1-3-6-6-5-4-4-16-10-2-4-6-3v-2h-2l-2-4-7-3-6 1-2-2h-5l5 5 1 3-4-2-7-7 2-2 41-5z" fill="#AAE28D"/>
<path transform="translate(529,1097)" d="m0 0 17 1 13 4 10 6 6 7 4 8 2 7 1 36 1 6 8 1 1 1v23h-39l-3-3-1-3-6 2-8 4-9 2h-8l-10-2-9-5-7-6-3-6v-24l4-7 7-7 8-4 8-2h16l11 2-2-9-4-3-8-2-12 1-10 3-4 2-5-1-4-9-2-6 1-5 6-4 14-5 6-2zm-1 61-5 5v7l4 4 8 1 7-3 2-3-1-7-5-4z" fill="#0B71B9"/>
<path transform="translate(927,366)" d="m0 0v3l-4 7-7 7-2 5 7-4 4-4 4-2 3-3h3l1 24 1 92 1 18 3 5v2l2 1-14 3-21 3 17 17 7 8 13 12-4 8-7 10-13 19-12 16-7 10h-2v-182l1-51 23-23z" fill="#1187FC"/>
<path transform="translate(965,605)" d="m0 0 5 1 10 8 14 12 9 8v13l3 7v7l-7 11-9 11-12 14-11 11-13 9-13 5-7-2-7-7-8-16-8-20-5-7-6-11-2-3 9-1 9-6 9-9 14-19 7-11 4-3h7z" fill="#73CC0F"/>
<path transform="translate(561,584)" d="m0 0h98l1 1v86l-4-2-11-9-12-10-10-7-15-9-12-6-12-3-7-1h-19l-16 3-13 5-11 7-8 6v-27l4-4 14-9 24-16z" fill="#03E0F5"/>
<path transform="translate(1020,1105)" d="m0 0 17 1 12 4 13 9 6 10 1 5v22l-1 2-56 1 3 9 9 4h15l10-3 3-2h5l12 13-1 5-7 5-15 6-11 2h-22l-12-3-11-7-8-8-5-10-3-13v-12l3-12 4-8 8-9 12-7 9-3zm-2 25-5 3-2 3v7l1 1h24l1-1-1-12-2-1z" fill="#0B71BA"/>
<path transform="translate(761,526)" d="m0 0h79v79l-8-1-13-3h-17l-15 4-16 8-9 6h-2z" fill="#09B4F7"/>
<path transform="translate(854,834)" d="m0 0 2 3 3 11 2 10 2-1 2 9h2l4-9h5 3 4l3 8 2-3 2 2 3 61v39l-1 10h2v2l9-2 8-3 29-10 29-13 20-11 12-8 19-14 13-11 8-7h2v-2l6-1v2h-2v5l-8 5-13 13-7 4-6 5-11 6-8 6-13 8-19 10-11 4-14 7-11 4-9 3-8 3-9 2-13 3-1 1-13 2-6 1-10 2h-5l1-148z" fill="#ABEEFD"/>
<path transform="translate(697,810)" d="m0 0 5 1 2 1v2l2 1h-3l-2 12 2 18 5 32 4 23 8 21 8 17 5 7v2h2l2 6 4 7 4 10 4-1 5-9 2-1 3 1 2-1h36l2 1 13-3h11l9 2 4 7 5 1 3-10 2-2 4 2 1 2v24l-1 1-9 1-1 1-16 1h-35l-26-3-29-6-25-7-11-4-1-1z" fill="#1662FE"/>
<path transform="translate(950,345)" d="m0 0h89l4 1v109h-1l-1-32-2 3-3 8h-3l-2-5-2-19-3-10-4-7-10-1-8-1-6-3-10 1-11 2-5-2-6-2-4 9-4 19-1 15-3 11-3 7-4-4v-96l3-2z" fill="#04E1F6"/>
<path transform="translate(554,630)" d="m0 0h24l16 4 22 12 12 9 11 9 16 15 8 7 10 9 4 5h5l-2 4 7 7 11 14 3 4-1 4-5-2-8-3-7-1h-18l-15 5v5l-2-1v-2l-6 2 4-4-1-11-4-1-2-1v-5l4-4 4-1v-3l-9 2-12 3-2-6-1-4-9-7v-2h-2l-3-5v-2h-2v-2l-4-1v-2l-3-1-9-18-3-5-10-4v-3l8-3v-2l-8-1-9-1-5-3-3-3v-2h-8l-13 2 2-2z" fill="#A9E28C"/>
<path transform="translate(888,479)" d="m0 0 3 1-2 25-1 4h2v33l-3 7-6 1-3-1h-5l1 8 4 2 3-1v-2l3 1 2 3 1-5 2 2 1 3 2-1 1 6 1-31 2-33 2-6h1l1 29v99l2 1-8 8-7 4-6-5-23-15-6-3 1-2-1-95-3-2-78-1-3-1-16-1 2-2h11l1-2 2 1h6l2-2h14l12 1 27 1 5 2h9l4-1 9 6v11l2 7-2 18-1 13 1 7 3 1 1 2 2-10 4-9 3 1v-7l-1-2v-8l1-3v-14h2l-1-3 1-3h2v-7l4-2h5l-1-7-3-1v-3l6-3 1 2 3-1z" fill="#AEDCFD"/>
<path transform="translate(715,537)" d="m0 0h2l-2 6-9 6 1 2 5-1 15-9 8-4 2 6 1 87 5 2-2 4-15 14-26 26-1 2h-2v-130l4-4 8-5z" fill="#1187FD"/>
<path transform="translate(961,1101)" d="m0 0h11v32l-16 4-6 4-2 3-1 6v20l8 4v22l-2 1h-49l-2-5v-15l1-3 7-4v-37l-7-4-1-2v-13l2-7h34l3 5 4 1 7-8z" fill="#0D72BA"/>
<path transform="translate(790,611)" d="m0 0h12l3 6v2l6 1 4-1h11l-3 2-14 6-18 11-13 11-10 9-12 12-8 7-7 7-8 10h-2l-2 4-11 12-7 7-12 8-4-2-7-9-9-10 1-3h2v-2l10-6 15-15 7-8 4-5 8-7 15-15 8-7 12-10 15-10z" fill="#74CC11"/>
<path transform="translate(1125,514)" d="m0 0h3l9 22 6 19 1 7 2 5 1 8 2 3v13l3 1 1 24 2 1v12l-1 4h1l-1 7-4-5-1-2-3 9-1 9h-3l-1-2-1-14-3 3-3-9 1-3-1-2-2 8-9 5-1-1v-8l1-4-2-4-3 1-2 5-9 3h-4l-3 15-2 5h-1v-134l4 3 1 19 3 16 1 3 1 10 1 1 1-4h2l-1-7 2-2 4-1 5-8 2 3 2 6 3 20 1 1 2-4 3 1 2 9-1 5 4-2 2-3-1-7-1-4h2l-2-10-5-13-5-22-3-5z" fill="#AEDCFD"/>
<path transform="translate(659,771)" d="m0 0h1l1 5 5 2 16 17 10 9 3 2v2l4 2h-2v156h-1l-1-45-3 12v16l1 9 2 3v4l-5-2-1-3v-10l-1-21-1-18-1-2-1-18h-2l-1 10-2 1v-2h-2l-3-3-4-2-3-13-2-21-2-8h-1l-1 7h-1l-1 78h-1z" fill="#AFE5FD"/>
<path transform="translate(871,667)" d="m0 0 7 1 5 2v1l-12 3-8 4-12 11-8 7-9 8-6 7h-2v2l-8 7-8 8-8 7-16 15-11 9-9 8-17 12-12 6-3 1h-13l-9-2-3-1v8l3 12 1 2-5-1-11-6-9-7-12-12-9-11-11-15-9-16-1-5 9-4 7-2h18l10 2 12 6 6 7 2 6 1 29 8 3 3 1h13l9-4 11-7 13-11 10-9 8-7 15-14 12-11 7-7 7-8 7-7 11-9 11-10 5-4h2v-2z" fill="#039A38"/>
<path transform="translate(1195,1107)" d="m0 0h41l1 2 1 62 7 2 1 3v20l-2 1h-49l-2-1v-19l2-4 5-2 1-26v-13l-7-2-1-19z" fill="#0F74BB"/>
<path transform="translate(717,1107)" d="m0 0h41l1 1 1 62 7 3 1 1v22l-10 1h-41v-24l6-1v-41h-5l-1-1z" fill="#0E73BB"/>
<path transform="translate(754,813)" d="m0 0h2v2l-9 6h-2l-2 5v10l-1 8 1 16 2 7 5 1v-2l11 2v4h9l6 1 14 1 1 3 35-3h9v-2l7-2 6-4h2l1-3 1 1v69h-1l-1-39-1-8-5 3-5 5h-17l-10 2-12 1h-33l-16-3-6-3-4-9-1-13-3 9-3 2-4-4-8-18-5-13-1-6 1-12 6-4 4-1 4-4 18-3z" fill="#1286FD"/>
<path transform="translate(641,745)" d="m0 0h2l7 12 9 13v46l-3 3-1 2h-2l-1 3-5-1h-23l-3 1-7-1v-2l-8-1-4-2v-3l-2 2-7-2 2-12 3-9 4-8 3-7 12-14 14-13z" fill="#0F92FC"/>
<path transform="translate(851,732)" d="m0 0h2l-1 132h-1l-1-51-4 7-4 4-3 1h-28l-9-3-5-3-1-6 3-10-2-4 1-3-4 3 1-5 9-12 6-10 3-3h2l2-4 14-14 5-6 6-5 5-5z" fill="#0CA8F8"/>
<path transform="translate(964,595)" d="m0 0 6 2 13 11 8 7 13 11 7 6-2 7v7l5 9 1 2-9 14-13 17-9 10-7 8-13 11-14 8-9 3-11-2 1 7 3 6 4 3-5-1-16-9-12-9-11-9-12-12-7-5 5-5 14-7 6-2h7l7 2 3 4 9 21 8 9 7 2 13-5 10-7 10-9 13-14 11-14 7-11v-7l-3-7v-13l-12-11-10-8-11-9-7 1-8 1-6 1-7 10-12 17-11 12-7 6-4 2h-10l-6-7 14-2 8-4 9-9 10-13 13-20 4-5h4l3 3 7-3z" fill="#039938"/>
<path transform="translate(1042,671)" d="m0 0h1l-1 174h-1l-1-68-5-2-5-3-1-2-4-2-12-5-19-2-5-3-1-4v-7l4-9 1-4 8-9 4-10 13-14 20-25z" fill="#1286FD"/>
<path transform="translate(578,642)" d="m0 0 8 2-5 4-19 3-13 5-12 7-13 12-9 10-15 23-7 12-8 16-19 39-7 12-8 11-2 3v7l1 8v6l6 10 8 11 10 13 9 12 6 6 12-2h16l10-19 8-19 11-26 12-25 8-14 8-11 10-13 25-25 4-3h2v-2l10-5 12-4h7v3l-24 12-17 13-16 16-12 16-10 16-8 15-12 27-11 28-8 16-7 11-2 2-5-1-10-1-8 4-4 3-4-1-9-13-11-14-10-13-12-15v-2l-4-2-1-4 3-5v-8l-4-6 1-4 6-4 8-10 12-21 21-43 11-19 14-21 13-15 12-11 14-8 8-3 5-1z" fill="#039A38"/>
<path transform="translate(663,848)" d="m0 0h1l3 13 3 27 1 7 6 2 1 3h3l2-9h2l1 4 1 14 1 2 1 27 1 13v12l5 2-3-7-1-11v-14l3-12 2-2v47l10 3 4 2 1 5-7-1-8-4-8-2-10-4-8-4-2-4-5 1-11-6-9-6-17-8-11-9-5-3-10-7-10-9-5-3-22-22-1-5 1-3 15 15 8 7 10 9 14 11 11 8 20 13 19 10v-100l2 3z" fill="#ABEEFD"/>
<path transform="translate(572,596)" d="m0 0h75v63h-3l-15-12-19-12-14-7-12-3-11-2z" fill="#1187FC"/>
<path transform="translate(810,639)" d="m0 0h8l8 2 8 6 5 8 2 7v8l-4 11-11 12-12 6-6 1h-11l-10-5-6-7-3-7-1-10 3-10 7-11 7-6 5-3z" fill="#039938"/>
<path transform="translate(944,347)" d="m0 0h2l1 124 1 35 1 1 7-1 3-2 2 1v-2l8-3h11l32-2h14l10 1 5-3 2 9-4 2-75 9-17 2h-7l1-2-4-7-1-23-1-87v-24l-5 1-2 4-5 3-6 5h-3l2-6 7-7 4-8-2-1 17-17h2z" fill="#09B4F7"/>
<path transform="translate(547,683)" d="m0 0h17l10 5 6 8 3 9v9l-4 10-11 12-9 5-4 1h-16l-10-4-6-7-3-7v-12l5-12 14-14z" fill="#039938"/>
<path transform="translate(1007,628)" d="m0 0 4 1 3 4v2h3v2h3l3 5 4 6v2l3 1v3h2l4 6v6l-4 2-2 5-6 8-5 6-3 4h-2l-2 5-9 10-5 5-7 8-11 11-9 7-10 6-5 2h-13l-5-2v-2l-5-2-4-9v-5l12 2 11-4 12-7 14-12 10-11 11-14 11-15 4-8-5-8-1-2v-7l2-7z" fill="#73CC11"/>
<path transform="translate(762,527)" d="m0 0h77v11l-3 24-3 2h-3l-2-2-3 1v2l-5 2-17-1-10 1h-10l-17-3-3-2-1-3z" fill="#0CA8F8"/>
<path transform="translate(657,872)" d="m0 0h1l1 19 1 59-6-2-18-10-25-17-13-11-11-9-5-5 1-4h11l3 1 5-3 12-2 20-4 9 2 5 5 3-1 4-9z" fill="#1661FE"/>
<path transform="translate(807,606)" d="m0 0h9l16 4 5 3 6 2 9 5 16 10 14 10 8 2-2 4 13 13 10 17 4 7v2l-15-1-11 3-2-1v-5l-8-6-3-3 6-2-7-2-9 1-3-5-3-7-12-14-9-8-6-4-12-6v-4l2-1h-8l-5 1-6-2-1-5-4-2h-9l-10 4-2-1 12-6 8-2z" fill="#A9E28C"/>
<path transform="translate(932,375)" d="m0 0h3v73l-3 11-6 20-3 4-3 7-1 2h-3l-3-13-1-6-1-36 1-43 8-8 5-6 4-2z" fill="#1477FD"/>
<path transform="translate(575,649)" d="m0 0h26l14 3 6 9 2 1 2 5 9 12 8 5 5 8v8l-8 5-9 3-7 2-2-5-1-4-9-7v-2h-2l-3-5v-2h-2v-2l-4-1v-2l-3-1-9-18-3-5-10-4z" fill="#9ADB55"/>
<path transform="translate(544,586)" d="m0 0h5v3 3l-21 14-14 9-3 3v28l-5 2-2 4-12 12-9 11-2 3-7 3-3 2-1-1-1-12-2-2v-23h2l1-3 2-1 1-5 3 2 2 7 3-3 2-7h4l1 6h3l2-7 2-1 1 2 2-3h2v-8l3-8 7-8 12-8 19-12z" fill="#AEE6FD"/>
<path transform="translate(942,581)" d="m0 0 10 1 1 3 5 2 4 6 7 2 11 7 16 16h-3l-8-8-14-11-5-3-4 2-6 2-3-2v-2l-5 2-10 15-7 11-12 14-9 8-9 3h-11l-3-3 2-4 3-3 8-6 11-13 13-18 8-11 5-5z" fill="#75CC14"/>
<path transform="translate(554,588)" d="m0 0h5l-2 22 2 11 6 1v1l-19 3-15 5-10 6-10 8h-1v-27l4-4 14-9 24-16z" fill="#0E94FC"/>
<path transform="translate(745,517)" d="m0 0h2v7l-4 11v9l3 15 3 64 5 1-9 9-6-1-2-2-1-87-1-5-12 6-13 8-4-1v-3l7-5h2l2-6-6 2 3-3 21-14z" fill="#09B4F7"/>
<path transform="translate(572,596)" d="m0 0h75v63h-3l-15-12-19-12-1-7-4-5 1-4 16-4 11-2v2l10 1 2-2v-14l-1-2-72-1z" fill="#0E95FC"/>
<path transform="translate(730,505)" d="m0 0 3 1-2 6-3 6-14 7-3 3h-2v2l-7 6-7 3-8 3-1 1-7 1-4 2v-2l-6 2-5 2-2-5 1-7 4-4h3l2-4 4-4 2-4h3l1 2 10 3h2v-3l-4-1v-4l-2 1 1-3 6-1 4 1 5-5h6l4-4 9 1z" fill="#AFDBFD"/>
<path transform="translate(734,537)" d="m0 0 2 1v31l-2 10-6 18h-6l-1 3-7 1-3-15-1-16v-14l5-5 11-8 6-5z" fill="#1477FD"/>
<path transform="translate(737,1062)" d="m0 0h9l8 4 6 7 2 7-1 8-6 8-9 3h-9l-9-3-5-7-2-7 1-8 5-7z" fill="#1075BD"/>
<path transform="translate(602,784)" d="m0 0 1 2-6 13-2 12v3l5 2 3-2v3l3 2 8 2v2h8l7-1h22l1 1 1-2h2l2-5h2v24l-2 4-1-11-4 7-3 1-6-5h-25l-15-2-8-3-6-4-2-2-5 8-1-4 3-10 8-16 2-7z" fill="#1286FD"/>
<path transform="translate(1215,1062)" d="m0 0h7l10 4 6 7 1 3v10l-3 6-6 5-7 2h-8l-8-3-5-5-3-6v-8l4-8 6-5z" fill="#0E74BB"/>
<path transform="translate(1040,496)" d="m0 0 2 4 1 5-4 2-75 9-17 1-1-4v-7l8 1 5-3 2 1v-2l8-3h11l32-2h14l10 1z" fill="#09B5F7"/>
<path transform="translate(643,747)" d="m0 0 4 5 10 15 1 3h-2l-1 7-3 9-4 4-8 1-10-5-5-4h-2v-4h-2l-1-6 8-12 5-2 2-4 7-5z" fill="#0BA8F7"/>
<path transform="translate(815,619)" d="m0 0h11l-3 2-14 6-18 11-13 11-10 9-12 12-8 7-7 7-8 10h-2l-2 4-11 12-7 7-12 8-4-2-1-3 11-6 8-7 9-11 13-15 12-13 18-18 14-11 12-9 13-8z" fill="#039A38"/>
<path transform="translate(913,541)" d="m0 0 6 1 6 2 3-1 7 8 8 7 2 3-10 16-7 10h-3l-7 1-3-2-1-6v-35z" fill="#0E94FC"/>
<path transform="translate(1020,550)" d="m0 0 7 1 1 2v6l-5 1-2 2h-4v6l3 4 4-1 4-3h5l-1 6-3 3v3l4 3 2 4 9-10 3-4 4 1 2 2-1 6-20 20h-5l-1-10v-3l-3-1v-2h-2l-1 2-4 1-4-2 1-8-6-7-1-7 3-8 5-5z" fill="#F3FBFD"/>
<path transform="translate(544,692)" d="m0 0h6l2 5-1 3-5 3 3 2v2l12-1 6 3 3 3 1 8-2 9-2 3-10 2h-6l-3-3 1-5 7-2-3-4v-2l-5 1h-8l-6-4-3-6 1-7 2-7 4-2 3 1z" fill="#EAF7F7"/>
<path transform="translate(802,646)" d="m0 0 4 1v7l-7 7-2 7 4-2 1-2h5l1 4-6 7h3l5-5 5 2-1 4-5 4 6-1 7-7h7l1 1v6l-6 7-11 4h-7l-5-2v2l-6-1-1-3v-2l-7-3 1-3h2l-3-10 2-11 8-9z" fill="#EDF8F7"/>
<path transform="translate(715,537)" d="m0 0h2l-2 6-9 6 1 2 5-1 15-9 2 1-17 12-1 2h-2v64h-2l1 7-3 3-3-7-1-7-1-1-1-11-1-19-1-37 4-4 8-5z" fill="#0E93FC"/>
<path transform="translate(373,1245)" d="m0 0h13l11 2 7 6 3 8v12l-3 7-5 6-6 2-7 1h-13zm8 8v28l1 1 9-1 5-3 2-5v-12l-2-5-5-3z" fill="#39578E"/>
<path transform="translate(1081,1255)" d="m0 0h20l-1 5-3 1v11l-3 4-5 2v4l9 3 3 4-1 8-4 5-7 3h-13l-5-4-1-2v-8l3-3h2l-2-7 3-1-4-9v-9l4-5zm0 4-2 2v11l3 3h6l3-6-1-8-2-2zm-3 29-2 2-1 8 4 3h8l6-3 1-1v-8l-2-1z" fill="#3B5992"/>
<path transform="translate(898,495)" d="m0 0h1l1 29v99l2 1-8 8-2-1 1-3-1-4h-2l1-7 1-4 1-44 1-36 2-32z" fill="#AFE5FD"/>
<path transform="translate(733,1254)" d="m0 0 5 1 1 1 7-1h8l6 7 2 8-1 10-4 6-4 3h-7l-6-2v18h-7l-1-6v-44zm12 7-3 1-2 4v11l3 5 6 1 3-1 2-6v-7l-2-7z" fill="#267BBB"/>
<path transform="translate(1042,671)" d="m0 0h1l-1 49-1 18h-1l-2-7v-4h-2l-1-2-4-1-1-4-5-4h-5l-1 3h-2l-2 4h-3l-1-3 5-9 10-16h2l2-4 5-7 3-1 1-5h2l-1-5z" fill="#0F92FC"/>
<path transform="translate(710,971)" d="m0 0 16 4 26 6 26 4 11 1h35l16-1h12v6l-7 1h-64l-2-2h-9l-18-2-23-6-17-5-3-5z" fill="#ACEBFD"/>
<path transform="translate(826,1242)" d="m0 0h8l1 1-1 46h-5l-4-2-8 2-7-2-4-6-1-3v-13l3-6 5-4h7l6 2zm-10 20-3 4v13l4 4 7-1 2-2 1-12-2-5-2-1z" fill="#0C71B9"/>
<path transform="translate(825,622)" d="m0 0 7 2 9 1 16 10 5 5v2l4 1 5 4v2l3 1 6 8 2 2-1 4-10 2v2l-5 1-3-5-3-7-12-14-9-8-6-4-12-6v-2z" fill="#9ADB55"/>
<path transform="translate(919,1254)" d="m0 0h7l3 3 5 16h4l2-9 3-9 1-1h6l1 3-10 30-5 12-6 5-9 1 1-6 8-4v-8l-7-20-4-10z" fill="#3B588D"/>
<path transform="translate(694,1255)" d="m0 0h12l7 6v28l-11-1-2 1h-8l-4-2-3-7 1-6 4-4 9-2h6l-1-5-5-1-7 1-3-2 1-4zm3 19-2 2 1 5 3 2 5-1v-7l-1-1z" fill="#1F7AB9"/>
<path transform="translate(452,1254)" d="m0 0 7 2 2 2 5-3h8l6 5 1 2v27h-7l-2-26h-8l-2 1-1 24-1 1h-7l-1-1z" fill="#416CA2"/>
<path transform="translate(554,588)" d="m0 0h5l-2 22 2 11 6 1v1l-14 2h-5l-3-6-6-4-1-13-2-1 18-12z" fill="#09B5F7"/>
<path transform="translate(1039,1255)" d="m0 0h8l6 3 4 8v7l-20 1v6l5 2h9l4-1v5l-5 3h-12l-6-4-4-8v-10l4-8zm3 5-4 4 1 3h7l1-4-3-3z" fill="#3B5891"/>
<path transform="translate(736,543)" d="m0 0h1l1 87 5 2-2 4-4 3-7-1-5 3h-2v2l-5 4-6 3-1 2h-4l-1-5 3-5 5-2 9-9 5-13 3-7 3-19 1-3z" fill="#0E93FC"/>
<path transform="translate(1117,1254)" d="m0 0 8 1 1 25 1 2 9-1 1-2 1-24 2-1 6 1v33l-4 1-6-1h-14l-4-4-1-3z" fill="#3B5C92"/>
<path transform="translate(1210,1255)" d="m0 0h9l6 4 4 6v14l-4 6-6 4h-9l-5-3-4-5-2-6v-7l3-8 5-4zm2 7-4 3-1 3v8l3 5 5 2 5-3 1-2v-12l-3-4z" fill="#486699"/>
<path transform="translate(862,1255)" d="m0 0h8l6 3 4 5 2 9-2 9-5 6-4 2h-10l-8-7-2-5v-10l4-8zm0 7-3 4v12l3 4h8l4-5v-10l-4-5z" fill="#3E5D94"/>
<path transform="translate(744,511)" d="m0 0h24l3 1 78 1 1 2h-102l-10 6-18 12-20 13h-6l-1-5 15-10 17-10 14-8z" fill="#ABECFD"/>
<path transform="translate(658,709)" d="m0 0h6l5 3 1 4v9l-21 6-2 1v5l-2-1v-2l-6 2 4-4-1-11-4-1-2-1v-5l5-3 4-1z" fill="#9ADB56"/>
<path transform="translate(590,1255)" d="m0 0h9l6 4 4 6 1 9-2 7-5 6-4 2h-10l-8-7-2-5v-9l3-8zm-1 7-3 7 1 9 1 3 4 2 7-1 3-4 1-3v-7l-3-5-1-1z" fill="#3B5A91"/>
<path transform="translate(958,341)" d="m0 0 11 1 7 2v1l-26 1-5 1-44 44-2 28-2-1-2-11 2-12-1-5 4-7 7-8h2l1-3 9-7 7-8 8-8h2v-2l6-4z" fill="#ACEBFD"/>
<path transform="translate(510,1255)" d="m0 0h9l6 4 3 6v8l-20 1 2 6 3 2h8l5-1v5l-4 3h-13l-6-4-4-8v-10l3-6 6-5zm1 4-4 3-1 6 3 1h11l1-1v-5l-4-4z" fill="#426094"/>
<path transform="translate(1047,894)" d="m0 0h2v2h-2v5l-8 5-13 13-7 4-6 5-11 6-8 6-13 8-15 8h-9l-1-2 19-9 22-13 24-18 11-9 9-8h2v-2z" fill="#ABEDFD"/>
<path transform="translate(744,516)" d="m0 0h4l1 71 3 21 2 4h4l1-6 1-78h1v92l-5 4-7-1-1-2-3-63-3-14v-9l4-11 1-7-5 3-3-1z" fill="#03D2F4"/>
<path transform="translate(647,596)" d="m0 0h1l1 36h3l4-11 2-3 1 1v52l-8-6-5-4z" fill="#03D1F4"/>
<path transform="translate(495,648)" d="m0 0h7v6l-10 10-9 11-2 3-7 3-3 2-1-1-1-12-1-2 4-9 8 1 10-9z" fill="#AEDDFD"/>
<path transform="translate(997,1255)" d="m0 0h11l4 4-1 4-12-1 1 4 10 6 3 4v6l-3 5-5 2h-9l-6-1-1-7 2-1 4 2h8l1-4-12-7-2-3v-8l5-4z" fill="#466599"/>
<path transform="translate(852,732)" d="m0 0h1v16l-1 27h-1l-1-11-3 1-1 5-5 8-5-1-3-3v-8l3-9 4-8 4-4 7-1z" fill="#09B5F7"/>
<path transform="translate(671,655)" d="m0 0 5 2v2h2l1 11h2l4 9 6 5-2 4-7 7-12-12-6-7v-2h2v-2l6-2 1-4-4-5 1-5z" fill="#AEDCFD"/>
<path transform="translate(936,422)" d="m0 0h1l2 37 5 31 3 23v5h-7l1-2-4-7-1-23z" fill="#0BA8F7"/>
<path transform="translate(898,862)" d="m0 0h1v107l-4-3v-80l2-7-1-1v-7z" fill="#ABEFFE"/>
<path transform="translate(900,521)" d="m0 0h1l1 26 1 3 1 25v23l1 3v4l6-2v2h2l-1 4-10 14h-2z" fill="#1476FB"/>
<path transform="translate(1074,1280)" d="m0 0h4v2l16 1 5 3 2 3-1 8-4 5-7 3h-13l-5-4-1-2v-8l3-3h2l-2-7zm4 8-2 2-1 8 4 3h8l6-3 1-1v-8l-2-1z" fill="#3C588E"/>
<path transform="translate(652,1254)" d="m0 0 5 1 2 3 4-1 2-2 6-1 1 4-2 5-9 3-1 6v16l-1 1h-7l-1-6v-28z" fill="#247EBF"/>
<path transform="translate(927,366)" d="m0 0v3l-4 7-7 7-2 5 5-3 2 1-8 8-2 23-4 9-1 6h-1l-1-14v-24l2-5 5-3 5-8h-3l11-11z" fill="#0F92FD"/>
<path transform="translate(545,1254)" d="m0 0 6 2 1 3 7-4h7l-1 6-11 6-1 22h-8z" fill="#1E78B9"/>
<path transform="translate(1166,1254)" d="m0 0 5 2 1 2 5-1 3-2h5l1 3-2 4-10 5-1 22h-8v-34z" fill="#4A9ACF"/>
<path transform="translate(826,1242)" d="m0 0h8l1 1v10h-1l-1-6-1-2h-3l-2 17-2 2-2-1h-7l-2 3v13l1 3h-5l-1 3-3-4-1-3v-13l3-6 5-4h7l6 2z" fill="#1A7ABE"/>
<path transform="translate(935,399)" d="m0 0h1l1 92 1 18 3 5v2l2 1-10 2-3-8-2-5 3-11 3-27v-24z" fill="#0E93FC"/>
<path transform="translate(521,610)" d="m0 0 1 3-2 6v6l8 4 1 3-11 7-8 6v-27l4-4z" fill="#1187FC"/>
<path transform="translate(746,1255)" d="m0 0h8l6 7 2 8-1 10-4 6-4 3h-7l-4-1v-4h-2v-2h12l1-13-1-7h-2v-2h-7z" fill="#395991"/>
<path transform="translate(944,1254)" d="m0 0h6l1 3-10 30-2 5-5-5-1-10-2-1-3-12v-7l2 4 4 12h4l2-9 3-9z" fill="#1272B8"/>
<path transform="translate(887,671)" d="m0 0 16 2 5 5 4 3 1-2 2 6-15-1-11 3-2-1v-5l-8-6v-3z" fill="#99DA55"/>
<path transform="translate(599,599)" d="m0 0h12l5 1 9-1h11l7 1v3l-2 1-20 2-20 1h-13l-4-2 10-5z" fill="#1577FE"/>
<path transform="translate(426,1254)" d="m0 0h7v35h-8v-34z" fill="#277DBB"/>
<path transform="translate(780,1254)" d="m0 0h7v35h-7l-1-2v-32z" fill="#237BB9"/>
<path transform="translate(544,586)" d="m0 0h5v3 3l-21 14-7 5-3-1h-3v-5l10-7 16-10z" fill="#B3EDFD"/>
<path transform="translate(544,594)" d="m0 0 4 1-1 4v7l5 17-1 2h-5l-3-6-6-4-1-13-2-1z" fill="#0BA9F7"/>
<path transform="translate(730,525)" d="m0 0h5l1 3-5 5-3 4h-2l1 2 3 1-20 12-4-1v-3l7-5h2l2-6-6 2 3-3z" fill="#0BAAF7"/>
<path transform="translate(373,1248)" d="m0 0 2 4v28l1-5-1-9 2-15h12l1 2h-9l1 28h9l-4 3-7 1-4-1v-2h-2v6h12v1h-13z" fill="#2884C3"/>
<path transform="translate(557,586)" d="m0 0h6l-2 5v19l2 4 7 1 1-18h1l1 9v17h-8l-7-2-2-13 2-19-3-2z" fill="#03D2F4"/>
<path transform="translate(793,608)" d="m0 0h25l6 2-2 4-8 5-9 1-3-7-3-1h-9l-10 4-2-1 12-6z" fill="#9BDB59"/>
<path transform="translate(1139,1254)" d="m0 0 7 1v30h-2l-3-3-1 2-1-3h-2l1-26z" fill="#2984C5"/>
<path transform="translate(840,558)" d="m0 0h1l1 32 2 5 5 1 3-1 2 7v9l-2 1-14-6 2-1z" fill="#03D3F4"/>
<path transform="translate(934,357)" d="m0 0h2l-1 9-4 7 5 1v25h-1v-24l-5 1-2 4-5 3-6 5h-3l2-6 7-7 4-8-2-1z" fill="#0BA8F8"/>
<path transform="translate(452,1254)" d="m0 0 6 1-1 6-2-1v6h2l1 4 2-7h1v25l-1 1h-7l-1-1z" fill="#3F6197"/>
<path transform="translate(997,1255)" d="m0 0h11l4 4-1 4-12-1v6h2l-2 6-6-2-3-4v-8l5-4z" fill="#436496"/>
<path transform="translate(898,737)" d="m0 0h1l1 7-1 64h-1v-9l-2-1v-8l-1-4v-19l1-9v-6l-1-6 1-8z" fill="#ABEEFE"/>
<path transform="translate(561,631)" d="m0 0h9l10 1 4 4 1 3-5 1-15 1-4-2-3-3v-2l-7-1v-1z" fill="#9ADB55"/>
<path transform="translate(840,985)" d="m0 0h12v6l-7 1h-27l-2-3 8-2v-1z" fill="#AFE5FD"/>
<path transform="translate(1166,1254)" d="m0 0 5 2 1 32h-6l-1-33z" fill="#2E4682"/>
<path transform="translate(737,575)" d="m0 0h1l1 26 2 19 3 5 4 3-2 4-5 1-4-3z" fill="#0BA8F7"/>
<path transform="translate(694,1255)" d="m0 0h12l5 4v6h-2l-1 3h-3l-1-5-5-1-7 1-3-2 1-4z" fill="#227FBD"/>
<path transform="translate(652,1254)" d="m0 0 5 1 2 3 4-1 2-2 6-1 1 4-2 5-9 3-4 1-3-4-2-6z" fill="#3A568D"/>
<path transform="translate(1045,818)" d="m0 0 2 2 1 14v8l-1 5-2 13-2-2v-37z" fill="#ABEEFE"/>
<path transform="translate(944,1254)" d="m0 0h6l1 3-8 24-4-1 1-11 5-12h-2z" fill="#3A578C"/>
<path transform="translate(513,606)" d="m0 0h2l2 4h3l-4 4-4 2-1 2v28h-2l-1-21-3-1v-9z" fill="#ACE7FD"/>
<path transform="translate(900,383)" d="m0 0 3 2 3 1-5 5-2 28-2-1-2-11 2-12-1-5z" fill="#AFE6FE"/>
<path transform="translate(1039,674)" d="m0 0 3 1-1 3h-2v5l-4 1-2 5-5 6h-2l-2 5-5 3-4 4 1-4 11-13z" fill="#117FF6"/>
<path transform="translate(711,1260)" d="m0 0 2 1v28h-4l-1-3v-10l1-2-1-5-3-1h3l1-4z" fill="#33508B"/>
<path transform="translate(687,1272)" d="m0 0h2l1 2 6-1h9l1 1v7l-2 1-1-7h-6l-1 5 5 4h-7l-1-3v3h-2l-1-5h-2l-2 4-1-6z" fill="#1879BD"/>
<path transform="translate(505,624)" d="m0 0 4 1v22l-3 1-1 2-1-9v-16z" fill="#BAF1FE"/>
<path transform="translate(710,971)" d="m0 0 16 4 9 3-3 2-5 1-15-4-3-5z" fill="#AFE6FD"/>
<path transform="translate(1120,1257)" d="m0 0h5l1 25-5-2-1-6z" fill="#1376BB"/>
<path transform="translate(1043,348)" d="m0 0h1v39l2 11-1 1-1 43h-1l-1-51v-33z" fill="#BAEAFD"/>
<path transform="translate(562,877)" d="m0 0 7 6 9 9-1 5-4-2-10-10-1-5z" fill="#AFE5FD"/>
<path transform="translate(480,1262)" d="m0 0h1v27h-7v-1h6l-4-10v-15l1 2h2z" fill="#1677BD"/>
<path transform="translate(687,1278)" d="m0 0 3 1 1 5h2l-1-4 2-1v5l11-1-3 5-2 1h-8l-4-2-1-2z" fill="#39578F"/>
<path transform="translate(958,341)" d="m0 0 11 1 7 2v1l-26 1-6 1v-2l-3-1 1-1z" fill="#AEE9FD"/>
<path transform="translate(603,1131)" d="m0 0 5 1v79l-1 1h-6l4-2 1-1v-76z" fill="#B1DAFD"/>
<path transform="translate(905,544)" d="m0 0 3 3 1 19 1 15-3-1v-7l-2-3z" fill="#1477FD"/>
<path transform="translate(657,657)" d="m0 0 2 1v13l-8-6-5-4 1-3 1 2 8-2z" fill="#09B3F6"/>
<path transform="translate(1042,455)" d="m0 0h1v41h2l1-2 2 7-3 3 4 2h-7z" fill="#AEDFFD"/>
<path transform="translate(809,1281)" d="m0 0 12 1 5-1-2 4-3 1v2l-4 1-7-2-1-4z" fill="#38568A"/>
<path transform="translate(927,366)" d="m0 0v3l-4 7-7 7-2-1 1-3-2-1 11-11z" fill="#0E96FC"/>
<path transform="translate(735,640)" d="m0 0 2 1-37 37v-3l13-13 4-5 8-7z" fill="#D0EEFD"/>
<path transform="translate(1180,1255)" d="m0 0h5l1 3-2 4-7 3h-4l2-7z" fill="#496798"/>
<path transform="translate(669,1254)" d="m0 0 3 1-1 7-2-1-10 2-2-2v-5l2 2 4-1 2-2z" fill="#307AB2"/>
<path transform="translate(1041,897)" d="m0 0 2 1-14 14-6 5-5 3h-2l1-3 14-11z" fill="#AEE4FD"/>
<path transform="translate(1134,1085)" d="m0 0h6l2 2v26l-5-2-4-3 6 1 1-12-1-9-5-2z" fill="#87CCFD"/>
<path transform="translate(741,643)" d="m0 0 2 1-34 34v-3l12-12z" fill="#91D84F"/>
<path transform="translate(916,377)" d="m0 0v3l-6 8-5 3-3 4-1-5 11-11z" fill="#1286FD"/>
<path transform="translate(966,594)" d="m0 0 5 2 10 7 15 15h-3l-8-8-14-11-5-3z" fill="#73CC0F"/>
<path transform="translate(639,746)" d="m0 0m-1 1m-1 1 1 3h-3l-2 4-8 7-6 4-4 3 2-4 14-13z" fill="#1187FC"/>
<path transform="translate(1100,480)" d="m0 0 5 1 2 4 3 4 2 3 1 7-4-5-5-6-4-6z" fill="#AFDCFD"/>
<path transform="translate(549,1270)" d="m0 0h1l1 11h1l1 7h-7v-14l1 4h2z" fill="#2D427E"/>
<path transform="translate(855,585)" d="m0 0h1l1 23-1 6 2 1-4-1-2-2 1-1 1-25z" fill="#AEE6FD"/>
<path transform="translate(826,1242)" d="m0 0h8l1 1v10h-1l-1-6-1-2h-3l-1 12h-2z" fill="#507C9F"/>
<path transform="translate(702,1242)" d="m0 0h8l-1 3-6 5-7 1 2-4z" fill="#5375A2"/>
<path transform="translate(579,1126)" d="m0 0 2 4 1 36 1 6 6 1v1h-8l-1-1z" fill="#86CAFD"/>
<path transform="translate(566,861)" d="m0 0h2l-1 5 1 2-2 10 2 3-4-2-3-4 3-10z" fill="#2470FE"/>
<path transform="translate(802,646)" d="m0 0 4 1v7l-2 1v-5l-7 1-5 6-2 5-1 10-2-4 2-11 8-9z" fill="#A9E6ED"/>
<path transform="translate(697,659)" d="m0 0h1l1 9h7l-2 4-5 6h-2z" fill="#1277F5"/>
<path transform="translate(454,1259)" d="m0 0 6 2-1 14h-1l-1-5-1 11h-1z" fill="#046CB6"/>
<path transform="translate(928,1257)" d="m0 0 2 4 4 12h4l-2 8-2-1-2-3-2-5-2-8z" fill="#64ABD6"/>
<path transform="translate(906,1130)" d="m0 0h5l1 2v40l-5 1 3-3v-37z" fill="#5DB6FD"/>
<path transform="translate(1044,1260)" d="m0 0 4 1 3 4v3h-15l-1-3 3-4 2 1-1 4h7l-1-4z" fill="#D3EEEF"/>
<path transform="translate(578,616)" d="m0 0 9 3 3 5h-8l-4-2-1-4z" fill="#1577FE"/>
<path transform="translate(780,1243)" d="m0 0h7v7h-7l-1-5z" fill="#49689E"/>
<path transform="translate(426,1243)" d="m0 0h6l1 1v5l-1 1h-6l-1-1v-5z" fill="#406B9F"/>
<path transform="translate(1154,629)" d="m0 0 2 1v43h-1l-1-38h-1v-5z" fill="#ABEDFE"/>
<path transform="translate(475,1268)" d="m0 0h1l1 10 3 7v3h-6z" fill="#2E427E"/>
<path transform="translate(696,1273)" d="m0 0h9l1 1v7l-2 1-1-7h-6l-1 5 5 4h-7v-10z" fill="#C6EAE0"/>
<path transform="translate(694,1269)" d="m0 0h9l-4 4-6 2h-4l1-5z" fill="#355189"/>
<path transform="translate(866,713)" d="m0 0m-1 1m-2 1 2 1-8 8-2 7-1 9h-1l-1-14z" fill="#ACEBFD"/>
<path transform="translate(1076,1278)" d="m0 0h12l1 5h-9l-2-1v-2h-2z" fill="#D5EEF0"/>
<path transform="translate(999,1266)" d="m0 0 8 4-3 1 1 7-6-3v-6-1z" fill="#3088C1"/>
<path transform="translate(1139,1254)" d="m0 0 7 1v3h-4l-1 16h-1l-1-16z" fill="#35508A"/>
<path transform="translate(511,635)" d="m0 0 5 1 1 4-7 5v-7z" fill="#1376F8"/>
<path transform="translate(661,559)" d="m0 0 1 4-1 8-4-2-1-9z" fill="#AFDCFD"/>
<path transform="translate(607,1178)" d="m0 0h1v33l-1 1h-6l4-2 1-1z" fill="#B4DEFD"/>
<path transform="translate(744,511)" d="m0 0h24v1l-22 2-2-1z" fill="#AFE7FE"/>
<path transform="translate(969,948)" d="m0 0 1 3-9 5-5-1 4-3z" fill="#AFE3FD"/>
<path transform="translate(571,597)" d="m0 0h1l1 9v17h-7l3-2h2z" fill="#0AAFF8"/>
<path transform="translate(667,586)" d="m0 0 2 1 1 9-3 3-2-7z" fill="#B1D5FE"/>
<path transform="translate(744,1256)" d="m0 0 2 1-2 2 6 1v1l-8 1v2l-3-1v-6z" fill="#5E98BE"/>
<path transform="translate(562,877)" d="m0 0 6 5v5l1 2-4-2-3-4z" fill="#B4EDFD"/>
<path transform="translate(1114,500)" d="m0 0 4 1v2l4-1 1 6-6-1-3-5z" fill="#AFDBFD"/>
<path transform="translate(827,1258)" d="m0 0 2 3v13l-2 3-1-15z" fill="#334B86"/>
<path transform="translate(946,1145)" d="m0 0h1v25l4 3h-5l-1-1v-25z" fill="#C0EAFD"/>
<path transform="translate(942,1257)" d="m0 0h3l-3 11-3 5-1-3z" fill="#2D85C5"/>
<path transform="translate(727,541)" d="m0 0 2 1-16 11v-3l10-7z" fill="#108EFD"/>
<path transform="translate(374,1266)" d="m0 0 2 1 1 10-2 4h-1z" fill="#2E427E"/>
<path transform="translate(398,1262)" d="m0 0h2l1 2v8l-3 1z" fill="#4295D0"/>
<path transform="translate(1044,880)" d="m0 0 4 4-1 4-3 1-1-7z" fill="#ABEFFE"/>
<path transform="translate(504,1271)" d="m0 0 1 2 3 1v5h-3l-2-4z" fill="#1876BB"/>
<path transform="translate(545,1254)" d="m0 0 5 1v5l-2-1-2 3-1-1z" fill="#31538B"/>
<path transform="translate(639,704)" d="m0 0m-5 1h5l-4 3-12 3 1-2z" fill="#AAE38D"/>
<path transform="translate(833,1282)" d="m0 0h1v7h-5l-1-4 5-1z" fill="#465F96"/>
<path transform="translate(642,1109)" d="m0 0h10l-5 5-4-1z" fill="#D0EBFD"/>
<path transform="translate(855,567)" d="m0 0 2 4-1 12h-1l-1-7v-8z" fill="#AFD9FD"/>
<path transform="translate(905,386)" d="m0 0 3 1-5 8-2-2 1-4z" fill="#1379FB"/>
</svg>
