<?xml version="1.0" encoding="UTF-8"?>
<svg version="1.1" viewBox="0 0 1600 1600" width="500" height="500" xmlns="http://www.w3.org/2000/svg">
<path transform="translate(792,303)" d="m0 0h28l21 1 1 1 23 2 16 4 13 3 13 4 12 3 9 4 7 2 10 4 6 3 3 3 9 4 13 3 63 1 4 1 1 2v39l2 10 3 6 8 8 5 3 4 6 9 9 8 11 10 11 24 40 7 16 3 6 4 9 6 14 6 19 1 7 2 5 1 8 2 3v13l3 1 1 24 2 1 1 13v43l-1 15-2 3-1 18-2 6-1 10-2 3-2 10-5 13-2 5-2 10-8 17-5 13-6 9-5 12-3 3-6 12-4 5-4 7-9 12-3 3-4 7-4 2-2-1v5l-12 12-3 6-3 3-5 2-3 1v5l-8 5-13 13h-4v2l-9 7-11 6-8 6-13 8-19 10-11 4-14 7-11 4-9 3-8 3-9 2-13 3-1 1-13 2-6 1-15 3-7 1h-64l-2-2h-9l-18-2-23-6-17-5-8-2-8-4-8-2-10-4-8-4-2-4-5 1-11-6-9-6-17-8-11-9-5-3-10-7-10-9-5-3-22-22-2-10 3-10 12-33 2-9-5 1-9 22-7 20-11 21-9 13-8 10-11 11-5 1-2 4-6 5-13 4-5-3-8-9-15-20-10-14-10-13-12-17-13-18-11-15-4-6-6-7-2-6 6-5 12-6 9-7 8-9 8-13 11-23 5-12 4-6 5-10 8-14 9-14 1-9-7 1-4 3-1-1-1-12-2-2v-43l2-3 1-22 2-4 1-11 2-4 2-14 4-8 3-9 3-10 4-10 7-18 12-23 6-10 6-9 5-8 7-10 12-16 3-5 7-7 7-8 29-29 9-7 13-10 3-3 1-2 12-6 10-6 14-8 12-6 5-4 6-1 9-5 7-2 8-4 18-5 3-2 7-2 2-1 10-1 2-2 14-1 10-3 7-1 1-1z" fill="#AEE2FD"/>
<path transform="translate(1074,508)" d="m0 0 3 1-4 2-22 2 7 9v2l4 2 4 3v2l5 2 9 5 8 3v-15l1-18h1v100l-2 75-4-2-29-29-3-4-4 2-14 19-6 8-3 2-4 7-9 10-7 8-11 12-7 8h-2l-1 3-11 9-10 7-7 2-1 1h-10l-11-4-15-8-19-14-13-12-9-9-3-1-6 4-14 11-9 9-8 7-52 52-8 7-12 10-13 8-10 4h-20l-16-6-14-8-10-9-7-7-9-11-10-14-8-13-3-7-9 2-4 4-3 1-2 3-3 1-7 8-14 14-12 18-9 16-9 19h-2v6l-8 19-7 20-11 21-9 13-8 10-11 11-5 1-2 4-6 5-13 4-5-3-8-9-15-20-10-14-10-13-12-17-13-18-11-15-4-6-6-7-2-6 6-5 12-6 9-7 8-9 8-13 11-23 5-12 4-6 5-10 8-14 8-12 2-1 4-8 8-10 9-11 11-11 11-8 10-6 16-5 6-1h18l16 3 16 8 13 8 14 11 11 10 8 7 15 14 8 8v2l9-3 9-6 7-7 7-8 9-10 13-13 8-7 8-8 11-9 13-10 16-9 9-3 5-1h21l12 4 6 3 7 2 10 7 16 10 11 8 9-1 8-7 9-8 3-4 2-5 13-18 11-16 13-18 2-3-1-4-12-11-12-12-5-4v-3l19-3 119-13z" fill="#73CC0F"/>
<path transform="translate(1042,671)" d="m0 0h1l-1 226 1-1 4-2 3 1-3 1v5l-8 5-13 13h-4v2l-9 7-11 6-8 6-13 8-19 10-11 4-14 7-11 4-9 3-8 3-9 2-13 3-1 1-13 2-6 1-15 3-7 1h-64l-2-2h-9l-18-2-23-6-17-5-8-2-8-4-8-2-10-4-8-4-2-4-5 1-11-6-9-6-17-8-11-9-5-3-10-7-10-9-5-3-22-22-2-10 3-10 12-33 15-30 8-14 8-11 9-11 7-7 11-9 7-5h2l7 12 8 11v2h2l1 5 6 4 7 7 7 8 11 10 8 6 10 4 18 3h10l16-4 14-8 12-9 11-9 11-11 5-4 1-2h2l2-4 52-52 8-6h7l7 8 4 3v2l4 2 4 4 5 3 5 5 10 7 14 7 10 3h15l10-4 12-8 11-10 5-4 7-8 9-9 9-11 11-13 10-13z" fill="#ABEDFD"/>
<path transform="translate(792,303)" d="m0 0h28l21 1 1 1 23 2 16 4 13 3 13 4 12 3 9 4 7 2 10 4 6 3 3 3 9 4 13 3v1l-26 1-5 1-43 43-1 51h-1l-1 54-2 5-2 38-1 29-2-3-1-3-2-1-1-3-1 5-4-5-2-1v2l-5 2-3-2v-9l5-3v-2h2l-1 5h8l1-6 1-26 1-8h-2l2-28 1-2h-2l-1 14-2-1v3h-4l-4 1 5 5-1 6-7 1-1 5-4 11 1 10-2 6v7l1 7v5l-4-4-1 5-3 8-2 9h-3l-1-5-1-2v-22l2-16-2-6v-10l1-2-6-2-4-2-3 1h-8l-6-2-27-1-10-1h-12v1l-12 1h-3l-11 1-13 3-13 7-13 8-10 6-2-1 4-3h2v-2l10-7 7-3 1-2h2l1-5h2v-5l-10 2-8-1-3 1-1 3h-7l-5 5-5-1-2 1v5l3 1v3l-3 1-6-3-4-1v-3l-3 2-1 3h-2l-2 4-3 4-5 3-2 6v5l2 1 5-3h5v2l4-3 7-1 5-3 9-3-5 5-3 4-1 6v54l-2-3 1-3-2-1-1-4v-10l-1-3-2 8-1 8-3-1-5-12-9-1v-3l-3-1v-2h-7l-7 2h-12l1-2h11l-4-2 4-2 4 2v-2h2l-2-8 2-3-2 1h-10l-1-2-3 1-5-3-4-1-5-1-2-7-5 2-4 2-1-4 2-1 1-3h2v-2l-4 3h-2l-2-2h-2l1 4-4 1-2-5-22 1-5 1-2-4-8 3-3 3-4-6h-6l-2-1-2 2-6-2-3 4-6 2 1 3 5-1 6-3h2l-2 4-7 2-1 3-8 2v2l-4 1-2 6-12 4-5-3-2-5v-6l-3-1v3l-4-1-2-1-1-8h-8l-1-1v-6l2-3 3-9 7-18 12-23 6-10 6-9 5-8 7-10 12-16 3-5 7-7 7-8 29-29 9-7 13-10 3-3 1-2 12-6 10-6 14-8 12-6 5-4 6-1 9-5 7-2 8-4 18-5 3-2 7-2 2-1 10-1 2-2 14-1 10-3 7-1 1-1z" fill="#B1D5FD"/>
<path transform="translate(1043,348)" d="m0 0h1v39l2 10 3 6 8 8 5 3 4 6 9 9 8 11 10 11 24 40 7 16 3 6 4 9 6 14 6 19 1 7 2 5 1 8 2 3v13l3 1 1 24 2 1 1 13v43l-1 15-2 3-1 18-2 6-1 10-2 3-2 10-5 13-2 5-2 10-8 17-5 13-6 9-5 12-3 3-6 12-4 5-4 7-9 12-3 3-4 7-4 2-2-1v5l-12 12-3 6-3 3-11 3-1 2-2-1 1-225-13 16-11 14-15 16-11 12-8 7-12 9-11 6-4 1h-15l-15-5-14-8-10-8-2-3-4-2v-2l-4-2-10-9-4-4v-2l-7 1-11 9-8 8-4 5-8 7-30 30-1 2h-2l-2 4-12 11-11 10-18 13-14 7-13 3h-10l-18-3-11-5-10-8-10-9-14-15-5-3v-5h-2l-14-21-1-4-9 6-14 12-10 11-10 14-9 15-9 19-3 7-1-3v-3l-6 1v-3h2l3-9 12-23 10-15 7-9 17-17 2-3 3-1 2-3h3l2-4 8-3 4 1 7 14 8 12 11 14 12 13 9 8 17 9 12 4h20l11-5 12-7 14-12 15-14 49-49 8-7 10-9 11-8 3-1 8 7 11 11 17 13 14 9 15 7 4 1h10l3-2 7-2 9-7 10-8 1-2h2l2-4 12-12 7-8 11-13 4-5 3-5 5-5 14-19 5-6 4 2 9 10 23 23 2 1v-33l1-42v-82l-1 15-11-3-11-7v-2l-4-2-5-5-6-7v-2l15-2 10-2-50 6-37 4-47 5-12 2h-7l3 5 8 7 14 14 6 5-1 4-13 19-8 11-13 19-5 6-2 5-5 6-8 7-7 6-9 1-11-8-22-14-6-4-9-3-11-4-3-1h-21l-11 3-16 8-16 12-14 12-11 11-8 7-13 13-7 8-9 10-8 6-6 3h-5l-7-8-10-10-8-7-13-12-14-11-10-7-16-9-7-3-16-3h-18l-16 4-10 4-10 7-10 8-10 10-8 10-9 13-2 4-1-2 1-9v-4l13-15 13-13 8-7 11-8 12-5 12-3 7-1h19l15 3 13 5 21 13 18 14 10 9 3 2v3l4 2 8 8 8 7 3 4 4-1 7-7 6-5 6-8 30-30 8-7 13-11 15-11 15-8 13-4 5-1h17l17 4 16 7v2l5 2 16 10 11 7 4 3 9-7 8-10 24-34 10-15 5-8-6-7-9-8-7-8-15-15 6-2 92-11 34-4 3-2v-146z" fill="#AEE2FD"/>
<path transform="translate(1074,508)" d="m0 0 3 1-4 2-22 2 7 9v2l4 2 4 3v2l5 2 9 5 8 3v-15l1-18h1v100l-2 75-4-2-29-29-3-4-4 2-14 19-6 8-3 2-4 7-9 10-7 8-11 12-7 8h-2l-1 3-11 9-10 7-7 2-1 1h-10l-4-1-3-3-6-4-3-8v-5l12 2 11-4 12-7 14-12 10-11 11-14 11-15 4-8-6-10v-7l2-7-10-9-9-7-12-11-11-8-4-1-4 3-4 1-3-2v-2l-5 2-10 15-7 11-12 14-9 8-9 3-7 1v2l3 3h10l9-6 9-9 14-19 7-11 4-3h7l8-2 5 1 10 8 14 12 9 8v13l3 7v7l-7 11-9 11-9 10-7 8-7 7-13 9-13 5-7-2-7-7-8-16-4-10-3-2-5-1h-7l-11 3-2-1v-5l-8-6-2-4 5-1-7-2-9 1-3-5-3-7-12-14-9-8-6-4-12-6v-4l2-1h-18l-3-7-3-1h-9l-10 4-12 7h-3l10-7 16-8 9-2h21l12 4 6 3 7 2 10 7 16 10 11 8 9-1 8-7 9-8 3-4 2-5 13-18 11-16 13-18 2-3-1-4-12-11-12-12-5-4v-3l19-3 119-13z" fill="#9ADB55"/>
<path transform="translate(1042,671)" d="m0 0h1l-1 226-7 7-14 11-13 10-16 11-19 11-28 13-28 10-13 4h-4v-244l7 4 11 8 14 7 10 3h15l10-4 12-8 11-10 5-4 7-8 9-9 9-11 11-13 10-13z" fill="#147CFD"/>
<path transform="translate(852,727)" d="m0 0h1l-1 257-1 1-27 2h-35l-26-3-29-6-25-7-11-4-1-1v-156l6 1 7 3 18 3h10l16-4 14-8 12-9 11-9 11-11 5-4 1-2h2l2-4 35-35z" fill="#1668FD"/>
<path transform="translate(964,595)" d="m0 0 6 2 13 11 8 7 13 11 7 6-2 7v7l6 11-9 14-13 17-10 11-7 8-12 10-14 8-9 3-11-2 1 7 3 6 7 4-3 1-19-10-19-14-13-12-9-9-3-1-6 4-14 11-9 9-8 7-52 52-8 7-12 10-13 8-10 4h-20l-16-6-14-8-10-9-7-7-9-11-10-14-8-13-3-7 1-4 15-5h18l10 2 13 6-6-9-9-11-9-10 1-3 10-5 10-9 3-6 16-17 11-11 8-7 8-8 11-9 6-5 7-3 10-6 10-4h12l3 6v2h21l-3 2h-2l1 4 14 7 10 8 7 7 10 13 3 8 9-1 8 3-4 3 5 5 4 3-1 5 7-1 6-2h7l7 2 3 4 9 21 8 9 7 2 13-5 10-7 10-9 13-14 11-14 7-11v-7l-3-7v-13l-12-11-10-8-11-9-7 1-8 1-6 1-7 10-12 17-11 12-7 6-4 2h-10l-5-6 16-4 8-6 11-12 9-13 9-14 4-5h4l3 3 7-3z" fill="#73CC0F"/>
<path transform="translate(950,345)" d="m0 0h89l4 1v159l-4 2-75 9-43 5-13 2 21 21 6 7 8 7 2 3-10 16-13 18-12 17-9 12h-1v-183l1-51 41-41h2l1-3z" fill="#03D2F4"/>
<path transform="translate(1133,1062)" d="m0 0h44l1 1 1 109 7 2 2 2h5l3-3 4-2 1-26v-13l-7-3-1-18 2-4h41l1 2 1 62 7 2 1 3v20l-2 1h-49l-4-3h-2l-1 2-4 1h-37l-5-2h-7l-9 3h-18l-10-4-6-4-7-7-7-13-3-11v-10l-5 1-1 7-1 1-57 1 4 9 9 4h15l10-3 7-3 13 14-1 5-10 6-12 5-11 2h-22l-12-3-11-7-8-8-5-10-3-13v-12l3-12 4-8 8-9 12-7 10-3 14-1 16 2 9 4 9 6 5 5 4 7 3 16h3l5-15 7-11 8-7 9-5 16-2 11 1 10 3-1-21-6-3-1-5v-17z" fill="#0770B8"/>
<path transform="translate(557,629)" d="m0 0h18l16 3 16 8 13 8 14 11 11 10 8 7 15 14 8 8v2l9-3 9-6 7-6-2 4-9 8-10 5 2 4 10 11 7 9 4 6v2l-5-1-8-4-10-2h-18l-15 5-1 2-11 4-2 3-3 1-2 3-3 1-7 8-14 14-12 18-9 16-9 19h-2v6l-8 19-7 20-11 21-9 13-8 10-11 11-5 1-2 4-6 5-13 4-5-3-8-9-15-20-10-14-10-13-12-17-13-18-11-15-4-6-6-7-2-6 6-5 12-6 9-7 8-9 8-13 11-23 5-12 4-6 5-10 8-14 8-12 2-1 4-8 8-10 9-11 11-11 11-8 10-6 16-5zm21 13-15 1-11 3-13 7-13 11-12 13-10 14-11 18-12 22-18 37-10 17-8 10-7 5 1 4 3 5v8l-3 5 2 5 3 1 2 4 11 14 20 26 10 14 5-1 5-4 5-2 10 1 5 1 7-9 13-27 11-28 7-15 8-17 10-16 9-12 8-10 15-15 17-12 22-11v-3h-7l-14 5-1-9-7-6-4-4h-2l-1-4-2-3h-2v-2l-4-1v-2l-3-3-8-16-4-6-10-4 4-2 7-3v-2z" fill="#76CD16"/>
<path transform="translate(355,1069)" d="m0 0h77l14 4 8 5 5 5 3 4 3 10v14l-4 10-9 8-4 1 1 5 9 9 3 5 4 18 5 1 1-7 2-2h9l6 2 1-5 4-7 7-7 8-4 9-2h15l11 2-2-9-4-3-8-2-12 1-10 3-4 2-5-1-4-9-2-6 1-5 6-4 13-5 7-2 17-1 14 2 11 4 9 6 7 9 4 12 1 36 1 6 8 1 1 1v23h-38l-3-1-1-5-5 1-10 5-9 2-15-1-12-6-6-5-6-9h-3l-5 10-5 6-10 4h-17l-12-4-6-5-5-8-2-6-2-20-3-7-5-3-8-1v28h7l3 1 1 13-1 10-1 1h-58v-24l9-2v-72l-1-5-7-1-1-1z" fill="#066FB8"/>
<path transform="translate(748,514)" d="m0 0h99l6 2 1 95-2 1-16-7-17-4h-17l-15 4-16 8-10 7-13 10-13 12-8 7-11 11h-2l-2 4-15 15v-132l17-11 21-14z" fill="#09B4F7"/>
<path transform="translate(901,732)" d="m0 0 1 3h2v2h2l2 7-1 7 2 8 1 23 1 17 1 11 3 16 7 19 12 26 5 7 5 14 2 1 3-8 2-12 1-29 1-12h2l3 9 1 1 20 1h12l18-3 13 1 7 4 5 1 6 1 1 2v49l-12 11-17 13-18 13-21 12-28 13-28 10-10 3h-6z" fill="#165DFE"/>
<path transform="translate(1089,500)" d="m0 0h9l-1 104-2 95-4-1-21-21-8-7-9-11h-3l-9 14-11 14-14 17-12 13-7 7-5 6-8 7-12 9-11 6-4 1h-15l-15-5-14-8-10-8-2-3-4-2v-2l-4-2-10-9-4-4v-2l-7 1-11 9-8 8-4 5-8 7-30 30-1 2h-2l-2 4-12 11-11 10-18 13-14 7-13 3h-10l-18-3-11-5-10-8-10-9-14-15-5-3v-5h-2l-14-21-1-4-9 6-14 12-10 11-10 14-9 15-9 19-3 7-1-3v-3l-6 1v-3h2l3-9 12-23 10-15 7-9 17-17 2-3 3-1 2-3h3l2-4 8-3 4 1 7 14 8 12 11 14 12 13 9 8 17 9 12 4h20l11-5 12-7 14-12 15-14 49-49 8-7 10-9 11-8 3-1 8 7 11 11 17 13 14 9 15 7 4 1h10l3-2 7-2 9-7 10-8 1-2h2l2-4 12-12 7-8 11-13 4-5 3-5 5-5 14-19 5-6 4 2 9 10 23 23 2 1v-33l1-42v-82l-1 15-11-3-11-7v-2l-4-2-5-5-6-7v-2l15-2 10-2-50 6-37 4-47 5-12 2h-7l3 5 8 7 14 14 6 5-1 4-13 19-8 11-13 19-5 6-2 5-5 6-8 7-7 6-9 1-11-8-22-14-6-4-9-3-11-4-3-1h-21l-11 3-16 8-16 12-14 12-11 11-8 7-13 13-7 8-9 10-8 6-6 3h-5l-7-8-10-10-8-7-13-12-14-11-10-7-16-9-7-3-16-3h-18l-16 4-10 4-10 7-10 8-10 10-8 10-9 13-2 4-1-2 1-9v-4l13-15 13-13 8-7 11-8 12-5 12-3 7-1h19l15 3 13 5 21 13 18 14 10 9 3 2v3l4 2 8 8 8 7 3 4 4-1 7-7 6-5 6-8 30-30 8-7 13-11 15-11 15-8 13-4 5-1h17l17 4 16 7v2l5 2 16 10 11 7 4 3 9-7 8-10 24-34 10-15 5-8-6-7-9-8-7-8-15-15 6-2 92-11 52-6z" fill="#F4FBFD"/>
<path transform="translate(641,745)" d="m0 0h2l7 12 9 13 1 180-6-2-18-10-25-17-13-11-11-9-7-7-8-7-10-10-1-4 15-41 15-30 8-14 8-11 9-11 7-7 11-9z" fill="#1671FD"/>
<path transform="translate(964,595)" d="m0 0 6 2 13 11 8 7 13 11 7 6-2 7v7l6 11-9 14-13 17-10 11-7 8-12 10-14 8-9 3-11-2 1 7 3 6 7 4-3 1-19-10-19-14-13-12-9-9-3-1-6 4-14 11-9 9-8 7-52 52-8 7-12 10-13 8-10 4h-20l-16-6-14-8-10-9-7-7-9-11-10-14-8-13-3-7 1-4 15-5h18l10 2 12 6 6 7 2 6 1 29 8 3 3 1h13l9-4 11-7 13-11 10-9 8-7 15-14 12-11 7-7 7-8 7-7 11-9 11-10 5-4h2v-2l8-3 7 1 5 2-4 3 5 5 4 3-1 5 7-1 6-2h7l7 2 3 4 9 21 8 9 7 2 13-5 10-7 10-9 13-14 11-14 7-11v-7l-3-7v-13l-12-11-10-8-11-9-7 1-8 1-6 1-7 10-12 17-11 12-7 6-4 2h-10l-5-6 16-4 8-6 11-12 9-13 9-14 4-5h4l3 3 7-3z" fill="#74CC13"/>
<path transform="translate(1074,508)" d="m0 0 3 1-4 2-22 2 7 9v2l4 2 4 3v2l5 2 9 5 8 3v-15l1-18h1v100l-2 75-4-2-29-29 1-2 28 28 2 1 1-30-6 1-2-1v-2l-4-2-5-5-7-8-5-5-7-6v-2l-4-2-9-6-4-1h-8l-9-2-11-6-5-6-4-9-5-15-3-1-3-6-6-5-4-4-16-10-2-4-4-2-10-10-9 1-2-2h-5l5 5 9 10 8 8h-3l-19-19-5-4v-3l19-3 119-13z" fill="#A9E28D"/>
<path transform="translate(664,1105)" d="m0 0h9l11 3 11 6 8 9 5 11 2 8v22l-4 12-6 9-7 7-12 5-14 2-16-3-6-2 1 15 9 4v21l-1 1h-54l-1-1v-21l2-2 5-2v-76l-6-3-1-2v-16l1-5h41l2 1v2l9-2 5-2z" fill="#0970B8"/>
<path transform="translate(852,727)" d="m0 0h1l-1 137-8 6-2 2v-2l-7 2v2l-31 3h-13v-2l-18-1-4-1h-7l-1-5-9-1-2-1v2h-2l-2 2-3-5-2-17v-9l1-7v-6l3-5 9-6h2v-3l12-7 12-9 11-9 11-11 5-4 1-2h2l2-4 35-35z" fill="#0F92FC"/>
<path transform="translate(824,1067)" d="m0 0h13l9 2 10 5h4l3-5h30v50l-1 1h-32l-3-7-5-10-7-4h-9l-8 5-5 8-3 10v21l4 11 8 9 8 3h7l10-3 11-8 4-4 5 1 15 15 3 5-2 4-10 9-14 8-14 4-7 1h-21l-14-3-13-7-10-9-7-10-5-13-3-16v-16l3-15 7-14 8-10 7-7 14-8 4-2z" fill="#0971B8"/>
<path transform="translate(754,813)" d="m0 0h2v2l-9 6h-2l-1 5h-2l1 10-1 7v9l2 13 2 3 2-1 2 1v-2l11 2 1 4h8l6 1 13 1 2 1v2l6-1 20-1 9-1h9v-2l7-2 6-4h2l1-3 1 1v114h-1v-62l-5 1-4 5v3l-5 2 1-2-4-2-14 1-17 4h-27l-11-1h-13l-5 6-3-1-2-6-2-13-3 2-5-1-4-7-6-12-6-16-2-1-4-16-3-33 1-9h2l1-5 17 2h10z" fill="#137DFD"/>
<path transform="translate(927,366)" d="m0 0 1 2-6 9-6 7-2 4 7-4 9-8 5-2 1 4v29l1 84 1 17 3 6v2l2 1-14 3-21 3 21 21 6 7 8 7 2 3-10 16-13 18-12 17-9 12h-1v-183l1-51 23-23z" fill="#1187FC"/>
<path transform="translate(965,605)" d="m0 0 5 1 10 8 14 12 9 8v13l3 7v7l-7 11-9 11-9 10-7 8-7 7-13 9-13 5-7-2-7-7-8-16-8-20-5-7-6-11-2-3 9-1 9-6 9-9 14-19 7-11 4-3h7z" fill="#73CC0F"/>
<path transform="translate(561,584)" d="m0 0h98l1 1v86l-4-2-11-9-12-10-10-7-15-9-12-6-12-3-7-1h-19l-16 3-13 5-11 7-8 6v-28l48-32z" fill="#03E0F6"/>
<path transform="translate(899,434)" d="m0 0h1l1 191-7 7-7 4-6-5-11-7-13-8-5-4 1-1-1-95-5-1h-99l-10 6-18 12-22 14h-2v27l-2-3-1-2-1-18v-8l7-6-12 5-1 1-7 1-4 2v-2l-6 2-5 2-2-2 1-10 4-4h3l2-4 3-4h2l1-4 3-1 1 3h4v2l8 1v-3l-4-1v-4l-2 1 1-3 6-1 4 1 5-5h6l4-4 8 1 10-2 1 2-1 4h-2l-1 5h-2l-1 3-12 6-3 3h-2v2l-4 3 22-13 10-6 7-3 10-2h11l1-2 2 1h6l2-2h16l10 1 27 1 6 2h8l4-1 9 5v12l2 7-2 18v20l4 3 2-10 3-5 1-4 3 1v-7l-1-2v-7l2-8-1-9 4-10 1-5 5-1 2-1 1-5-4-2v-3l6-3 1 1 1-3 1 1 2-13h2l-2 26-1 4h2l-1 34-2 6-6 1-2-1v-3l-4 3h-2v9l5 1 3-1v-2l3 1 2 3 1-7 2 4 1 3 2-1 1 6 1-27 2-38 2-5z" fill="#AEE2FD"/>
<path transform="translate(1043,348)" d="m0 0h1v39l2 10 3 6 8 8 5 3 4 6 9 9 8 11 10 11 24 40 7 16 3 7h-2l3 8 3 7 4 19 5 12 2 10-2 2 2 5-1 5-3 4h-3l-1-12-1-2h-2l-2 4-2-2-3-20-3-8-5 8-5 2v7h-3l1 4-2 3-2-13-1-4-3-16-1-17-1-1h-1v-19l-48 6h-8v-148z" fill="#B1D5FD"/>
<path transform="translate(1020,1105)" d="m0 0 17 1 12 4 10 7 5 5 4 7 3 16h3l2-7 1 4-2 7-5 1-1 7-1 1-57 1 4 9 9 4h15l10-3 7-3 13 14-1 5-10 6-12 5-11 2h-22l-12-3-11-7-8-8-5-10-3-13v-12l3-12 4-8 8-9 12-7 10-3z" fill="#0870B9"/>
<path transform="translate(872,708)" d="m0 0h7l7 8 6 8 2 7 1 241 4 4h-5v-2h-2v-49l-3-57-2-4-2 3-2-10h-4v2l-7-1-5 9-3-1-2-8-2 2-2-12-3-11-1 5-1 143-2-1 1-258 12-12z" fill="#AEE1FD"/>
<path transform="translate(745,517)" d="m0 0h2v7l-4 11v8l3 16 3 64 5 1-5 5-14 13-8 7-11 11h-2l-2 4-15 15v-132l17-11 21-14z" fill="#1187FC"/>
<path transform="translate(900,730)" d="m0 0 7 4 11 8 7 4v2h-6l-2-2-3 5v18l4 28 4 10 2 3 1 7 5 10 3 1 4-2 4 1 5 8h2l3-9 1-7 2-43h1l1 24 2 4h23l6 1 21-3 8 1 7 1-2 2 9 4 7-1v-3l4-1 1 40v52h-1l-1-50h-10l-5-4-9-2h-7l-18 3h-20l-12-1-4-6v-5h-2v15l-1 26-3 15-3 6-3-2-5-14-7-11-11-24-7-21-3-18v-13l-2-26v-8l-2-6 1-9-1-5h-2v-2h-2l-1 238 3 1h-4z" fill="#1571FD"/>
<path transform="translate(950,345)" d="m0 0h89l4 1v109h-1l-1-32-2 3-3 8h-3l-2-5-2-19-3-11-4-6-10-1-8-1-6-3-10 1-11 2-5-2-6-2-4 9-4 19-1 15-3 11-3 7-4-4v-96l3-2z" fill="#04E1F7"/>
<path transform="translate(706,813)" d="m0 0 5 2 1 2h-2v3h-2v10l1 7 2 25 3 13 3 4 10 25 5 9 5 1 3-2 2 6 2 12 1 2h2l5-6h13l11 1h27l17-4 14-1 5 2v2l3-2v-3l4-5 3-1 2 1v40l-2-1v-2h-3l-3 9-2 5-3 1-5-5-1-4h-7l-2-1h-11l-9 2h-42l-3 1-6-3-2 9-3 3-4-4-4-14-6-5-8-13-9-20-6-18-4-27-5-32v-16l2-6h3z" fill="#1571FD"/>
<path transform="translate(557,629)" d="m0 0h18l16 3 16 8 13 8 14 11 11 10 8 7 15 14 8 8v2l9-3 9-6 7-6-2 4-9 8-10 5 2 4 10 11 7 9 4 6v2l-5-1-8-4-10-2h-18l-15 5-1 2-7 2 4-4-1-11-4-1-2-1v-5l4-4 4-1v-3l-9 2-12 3-2-6-1-4-9-7v-2h-2l-3-5v-2h-2v-2l-4-1v-2l-3-1-9-18-3-5-10-4v-3l8-3h3v-2l-20-2-5-3-3-3v-2h-8l-10 2-9 4-4 1 4-4 13-5z" fill="#A9E28C"/>
<path transform="translate(961,1101)" d="m0 0h11v32l-16 4-6 4-2 3-1 6v20l8 4v22l-2 1h-49l-2-5v-15l1-3 7-4v-37l-7-4-1-2v-13l2-7h34l3 5 4 1 7-8z" fill="#0971B9"/>
<path transform="translate(955,516)" d="m0 0h9l-5 4 1 2-24 3-13 1 3 5 8 7 14 14 6 5-1 4-13 19-8 11-13 19-5 6-2 5-5 6-8 7-7 6-9 1-11-8-22-14-6-4-9-3-11-4-3-1h-21l-11 3-16 8-16 12-14 12-11 11-8 7-13 13-7 8-9 10-8 6-6 3h-5l-7-8-10-10-8-7-13-12-14-11-10-7-16-9-7-3-16-3h-18l-16 4-10 4-10 7-10 8-10 10-8 10-9 13-2 4-1-2 1-9v-4l13-15 13-13 8-7 11-8 12-5 12-3 7-1h19l15 3 13 5 21 13 18 14 10 9 3 2v3l4 2 8 8 8 7 3 4 4-1 7-7 6-5 6-8 30-30 8-7 13-11 15-11 15-8 13-4 5-1h17l17 4 16 7v2l5 2 16 10 11 7 4 3 9-7 8-10 24-34 10-15 5-8-6-7-9-8-7-8-15-15 6-2z" fill="#E9FBFD"/>
<path transform="translate(790,611)" d="m0 0h12l3 6v2h21l-3 2-16 7-16 10-13 11-10 9-12 12-8 7-7 7-8 10h-2l-2 4-11 12-7 7-12 8-4-2-7-9-9-10 1-3 10-5 10-9 3-6 16-17 11-11 8-7 8-8 11-9 6-5 7-3 10-6z" fill="#73CC0F"/>
<path transform="translate(871,667)" d="m0 0 7 1 5 2v1l-12 3-8 4-12 11-8 7-9 8-7 8-12 11-16 15-12 11-14 12-11 9-18 12-10 4h-13l-9-2-3-1v8l3 12 5 4-6-1-17-9-12-11-12-13-12-16-9-15-3-7 1-4 15-5h18l10 2 12 6 6 7 2 6 1 29 8 3 3 1h13l9-4 11-7 13-11 10-9 8-7 15-14 12-11 7-7 7-8 7-7 11-9 11-10 5-4h2v-2z" fill="#039A3A"/>
<path transform="translate(1195,1107)" d="m0 0h41l1 2 1 62 7 2 1 3v20l-2 1h-49l-4-3h-2l-2 2v-20h6l3-3 4-2 1-26v-13l-7-3-1-18z" fill="#0972B9"/>
<path transform="translate(748,514)" d="m0 0h99l6 2 1 95-2 1-14-6 2-1v-79h-79v94l-5 4-7-1-1-2-3-63-3-15v-8l4-11 1-7-5 3-3-1z" fill="#03E0F6"/>
<path transform="translate(717,1107)" d="m0 0h41l1 1 1 62 7 3 1 1v22l-10 1h-40l-1-1v-23l6-1v-41h-5l-1-1z" fill="#066FB8"/>
<path transform="translate(754,813)" d="m0 0h2v2l-9 6h-2l-1 5h-2l1 10-1 7v9l2 13 2 3 2-1 2 1v-2l11 2 1 4h8l6 1 13 1 2 1v2l6-1 20-1 9-1h9v-2l7-2 6-4h2l1-3 1 1v114h-1l-1-84-1-8-4 1-3 5-3 2h-17l-10 2-12 1h-33l-16-3-6-3-4-9-1-13-3 9-3 2-4-4-8-18-5-13-1-6 1-12 6-4 4-1 4-4 17-3z" fill="#1286FD"/>
<path transform="translate(641,745)" d="m0 0h2l7 12 9 13v46l-3 3-1 2h-2l-1 3-3-1h-25l-4 1-6-1v-2l-8-1-4-2v-3l-2 2-7-2 2-12 3-9 4-8 3-7 12-14 14-13z" fill="#0F92FC"/>
<path transform="translate(659,770)" d="m0 0h1l1 5 6 4 7 7 7 8 9 8 3 9v14l1 19 1 5v11l-4 58-1 32h-1l-1-21-1-18-1-2-1-18h-2l-1 11h-3l-3-5-5-3-3-11-2-22-2-8h-1l-1 7h-1l-1 78h-1z" fill="#AEE1FD"/>
<path transform="translate(851,732)" d="m0 0h2l-1 126h-1l-1-45-4 7-4 4-3 1h-28l-9-3-5-3-1-6 4-13-3-2 1-6 5-7 3-6 7-9 3-4h2l2-4 27-27z" fill="#0CA8F8"/>
<path transform="translate(964,595)" d="m0 0 6 2 13 11 8 7 13 11 7 6-2 7v7l6 11-9 14-13 17-10 11-7 8-12 10-14 8-9 3-11-2 1 7 3 6 7 4-3 1-19-10-19-14-13-12-12-12 10-7 12-5 3-1h7l7 2 3 4 9 21 8 9 7 2 13-5 10-7 10-9 13-14 11-14 7-11v-7l-3-7v-13l-12-11-10-8-11-9-7 1-8 1-6 1-7 10-12 17-11 12-7 6-4 2h-10l-5-6 16-4 8-6 11-12 9-13 9-14 4-5h4l3 3 7-3z" fill="#039A3A"/>
<path transform="translate(1042,671)" d="m0 0h1l-1 174h-1l-1-68-5-2-5-3-1-2-5-2-5-3-6-2-15-1-8-3-2-5v-7l4-9 1-4 8-9 3-7 12-12 5-7 2-5 8-9 10-13z" fill="#1286FD"/>
<path transform="translate(578,642)" d="m0 0 8 2v2l-5 2-19 3-13 5-12 7-13 12-9 10-15 23-7 12-8 16-19 39-7 12-8 11-2 3v7l1 7v7l6 10 8 11 10 13 9 12 6 6 12-2h16l10-19 8-19 11-26 12-25 8-14 8-11 10-13 25-25 11-8 17-6h7v3l-24 12-17 13-16 16-12 16-10 16-8 15-12 27-11 28-10 20-7 9-5-1-10-1-8 4-4 3-4-1-9-13-10-13-11-14-12-15v-2l-4-2-1-4 3-5v-8l-4-6 1-4 6-4 8-10 12-21 21-43 11-19 14-21 13-15 12-11 14-8 8-3 5-1z" fill="#039A38"/>
<path transform="translate(602,784)" d="m0 0 1 2-6 13-2 12v3l5 2 3-2v3l3 2 8 2v2h8l7-1h22l1 1 1-2h2l2-5h2v40l-2-2-5 12-3 1-5-6v-2l-2-1v-1h-18l-14 2-12-1-11-2-3-2v-2h-2l-1-7-1-8 1-4-1-2-3-1 14-28 8-14z" fill="#137DFD"/>
<path transform="translate(572,596)" d="m0 0h75v63h-3l-15-12-19-12-14-7-12-3-11-2z" fill="#1187FC"/>
<path transform="translate(810,639)" d="m0 0h8l8 2 8 6 5 8 2 7v8l-4 11-11 12-12 6-6 1h-11l-10-5-6-7-3-7-1-10 3-10 7-11 7-6 5-3z" fill="#039A3F"/>
<path transform="translate(944,347)" d="m0 0h2l1 124 1 35 1 1 7-1 3-2 2 1v-2l8-3h11l32-2h14l10 1 5-3 2 9-4 2-75 9-17 2h-7l1-2-4-8-1-22-1-79v-32l-6 3-12 10h-3l2-6 7-7 4-8-2-1 17-17h2z" fill="#0AB3F7"/>
<path transform="translate(1089,500)" d="m0 0h9l-1 104-2 95-4-1-2-2-3-8-2-4 2-2 2 1v-33l1-42v-82l-1 15-11-3-11-7v-2l-4-2-5-5-6-7v-2l15-2 10-2-50 6-37 4-19 2h-13l2-2 1-2h4v-2l108-13z" fill="#F9FDFD"/>
<path transform="translate(1007,628)" d="m0 0 4 1 3 4v2h3v2h3l3 5 7 10v2h2l4 6-1 5-4 8-5 5-6 9-8 9-7 8-11 12-7 8h-2l-1 3-11 9-10 7-7 2-1 1h-10l-4-1-3-3-6-4-3-8v-5l12 2 11-4 12-7 14-12 10-11 11-14 11-15 4-8-6-10v-7l2-7z" fill="#74CC13"/>
<path transform="translate(547,683)" d="m0 0h17l10 5 6 8 3 9v9l-4 10-11 12-9 5-4 1h-16l-10-4-6-7-3-7v-12l5-12 14-14z" fill="#039A3F"/>
<path transform="translate(657,872)" d="m0 0h1l1 19 1 59-6-2-18-10-25-17-13-11-11-9-7-7 1-3 13 1 3 1 5-3 12-2 20-4 9 2 5 5 3-1z" fill="#1667FE"/>
<path transform="translate(762,527)" d="m0 0h76l1 1v10l-3 24-3 2h-3v-3l-5 2v2l-5 2-17-1-18 1-19-3-3-2-1-3z" fill="#0CA8F8"/>
<path transform="translate(800,606)" d="m0 0h21l12 4 6 3 7 2 10 7 16 10 11 8h9l-4 4 2 4 11 11 10 17 4 7v2l-15-1-11 3-2-1v-5l-8-6-2-4 5-1-7-2-9 1-3-5-3-7-12-14-9-8-6-4-12-6v-4l2-1h-18l-3-7-3-1h-9l-10 4-12 7h-3l10-7 16-8z" fill="#A9E28B"/>
<path transform="translate(953,832)" d="m0 0h2l3 9 1 1 20 1h12l18-3 13 1 7 4 5 1 6 1 1 2v25l-6-1-1 7h-4l-4-6-5-3-4-1v-2h-14l-13 2-23 1-3 2h-5l1-3-4-2-2-3-1 5h-1v-26z" fill="#1767FE"/>
<path transform="translate(934,374)" d="m0 0 2 1-1 73-3 11-6 20-4 7-3 6h-3l-3-13-1-6-1-36v-34l1-9 7-7 6-7z" fill="#137DFD"/>
<path transform="translate(901,732)" d="m0 0 1 3h2v2h2l2 7-1 7 2 8 1 23 1 17 1 11 3 16 7 19 12 26 5 7 5 14 2 1 3-8 2-12h1v13l-2 24-2 11v26l-3 5-4-1-2-2v-12l1-4-3-16-3-8-4-15-12-26-6-16-2-8-3-27v-8l-2-10-2-52 1-4-3-1z" fill="#1767FE"/>
<path transform="translate(575,649)" d="m0 0h26l14 3 6 9 2 1 2 5 9 12 8 5 5 8v8l-5 4-10 3-9 3-2-5-1-4-9-7v-2h-2l-3-5v-2h-2v-2l-4-1v-2l-3-1-9-18-3-5-10-4z" fill="#9ADB55"/>
<path transform="translate(643,734)" d="m0 0 4 1 7 14 8 12 11 14 12 13 9 8 17 9 8 3 1 4 6 4v1l-11-1-10-3-8-4-15-13-8-8-7-8-7-5v-5h-2l-14-21-1-4-9 6-14 12-10 11-10 14-9 15-9 19-3 7-1-3v-3l-6 1v-3h2l3-9 12-23 10-15 7-9 17-17 2-3 3-1 2-3h3l2-4z" fill="#EBFCFA"/>
<path transform="translate(558,623)" d="m0 0h19l15 3 13 5 21 13 18 14 10 9 3 2v3l4 2 8 8 8 7 3 4 6-1 6-6h5l-1 4-9 7-6 3h-5l-7-8-10-10-8-7-13-12-14-11-10-7-16-9-7-3-16-3h-18l-16 4-10 4-10 7-10 8-10 10-8 10-9 13-2 4-1-2 1-9v-4l13-15 13-13 8-7 11-8 12-5 12-3z" fill="#F4FBFD"/>
<path transform="translate(698,834)" d="m0 0h1l1 26 1 10 2 7 4 31 4 20 9 24 2 1 3 9 14 11 3 1 1 2 7 2v1h-12l-26-7-14-5-1-1v-83z" fill="#165EFE"/>
<path transform="translate(942,581)" d="m0 0 10 1 1 3 5 2 4 6 7 2 11 7 16 16h-3l-8-8-14-11-5-3-4 2-6 2-3-2v-2l-5 2-10 15-7 11-12 14-9 8-9 3-10 1-4-4 2-4 3-1v-2l8-7 9-8 12-16 13-18 5-7z" fill="#74CC11"/>
<path transform="translate(558,587)" d="m0 0 1 2-2 21 2 11 6 1v1l-19 3-15 5-10 6-10 8h-1v-28l33-22 11-7z" fill="#0E94FC"/>
<path transform="translate(745,517)" d="m0 0h2v7l-4 11v8l3 16 3 64 5 1-9 9-7-2-1-1-1-93-10 6-11 6-6 3-3-1 1-4 6-2v-2h2l2-6-6 2 3-3 21-14z" fill="#09B4F7"/>
<path transform="translate(848,722)" d="m0 0h2l1 7-12 11-28 28-1 2h-2l-2 4-12 11-11 10-18 13-14 7-13 3h-10l-9-6v-3h24l11-5 12-7 14-12 15-14 45-45 5-2z" fill="#F5FBFD"/>
<path transform="translate(373,1245)" d="m0 0h14l10 2 7 6 3 8v11l-2 7-6 7-6 2-7 1h-13z" fill="#2B4E89"/>
<path transform="translate(572,596)" d="m0 0h75v63h-3l-15-12-19-12-1-7-4-5 1-4 16-4 11-2v2l10 1 2-3v-13l-1-2-72-1z" fill="#0E95FC"/>
<path transform="translate(955,516)" d="m0 0h9l-5 4 1 2-24 3-13 1 3 5 8 7 14 14 6 5-1 4-13 19-8 11-13 19-5 6-2 5-5 6-8 7-7 6-9 1 3-2-1-5 3 1 9-7 8-10 24-34 10-15 5-8-6-7-9-8-7-8-15-15 6-2z" fill="#EAFBFB"/>
<path transform="translate(887,718)" d="m0 0 3 1v2l4 2 5 5v247l-4-2-1-1-1-241-3-8z" fill="#C7F4FE"/>
<path transform="translate(602,784)" d="m0 0 1 2-6 13-2 12v3l5 2 3-2v3l3 2 8 2v2h8l7-1h22l1 1 1-2h2l2-5h2v24l-2 4-1-11-4 7-3 1-6-5h-25l-15-2-8-3-6-4-2-2-5 8-2-2-3-1 14-28 8-14z" fill="#1286FD"/>
<path transform="translate(734,537)" d="m0 0h2v32l-2 10-6 18h-6l-1 3-7 1-3-15-1-16v-16l8-6 5-5z" fill="#137DFD"/>
<path transform="translate(730,505)" d="m0 0 3 1-1 5h-2l-1 5h-2l-1 3-12 6-3 3h-2v2l-5 4-2 2-13 5-3 2-7 1-4 2v-2l-6 2-5 2-2-2 1-10 4-4h3l2-4 3-4h2l1-4 3-1 1 3h4v2l8 1v-3l-4-1v-4l-2 1 1-3 6-1 4 1 5-5h6l4-4 8 1z" fill="#AEE1FD"/>
<path transform="translate(657,889)" d="m0 0 2 2 1 59-6-2-18-10-25-17-13-11-2-1 1-3 8 3 6 3 10 2 3 1 12 1 11 2 3-3 3-9 3-13z" fill="#165FFE"/>
<path transform="translate(1086,1254)" d="m0 0h13l2 1-1 5-3 1v10l-2 4-6 4v3l9 3 3 4v6l-4 6-8 4h-14l-5-6-1-6 5-6-1-6 3-1-4-9v-9l4-5z" fill="#2B5893"/>
<path transform="translate(737,1062)" d="m0 0h9l8 4 6 7 2 7-1 8-6 8-9 3h-9l-9-3-5-7-2-7 1-8 5-7z" fill="#0C74BB"/>
<path transform="translate(1215,1062)" d="m0 0h7l10 4 6 7 1 3v10l-3 6-6 5-7 2h-8l-8-3-5-5-3-6v-8l4-8 6-5z" fill="#0A72BA"/>
<path transform="translate(776,506)" d="m0 0h16l10 1 27 1 6 2h8l4-1 9 5v12l2 7-2 15h-2l-2-32-5-1h-99l-10 6-18 12-22 14h-2v27l-2-3-1-2-1-18v-8l8-7 22-13 9-6 13-6 10-2h11l1-2 2 1h6z" fill="#ADE4FD"/>
<path transform="translate(1040,496)" d="m0 0 2 4 1 5-4 2-75 9-17 1-1-4v-7l8 1 5-3 2 1v-2l8-3h11l32-2h14l10 1z" fill="#09B5F7"/>
<path transform="translate(733,1254)" d="m0 0 5 1 1 1 7-1h8l6 7 2 8-1 10-5 8-2 1h-7l-7-2v18h-7l-1-4v-46z" fill="#1074B8"/>
<path transform="translate(826,1242)" d="m0 0h8l1 4-1 43h-5l-3-2-4 1-7 1-5-3-4-5-1-3v-13l5-8 2-2h8l6 2z" fill="#0673BC"/>
<path transform="translate(815,619)" d="m0 0h11l-3 2-16 7-16 10-13 11-10 9-12 12-8 7-7 7-8 10h-2l-2 4-11 12-7 7-12 8-4-2-1-3 11-6 8-7 9-11 9-10 9-11 25-25 14-11 12-9 13-8z" fill="#039A38"/>
<path transform="translate(643,747)" d="m0 0 4 5 10 15 1 3h-2l-1 9h-2l-1 7-4 4-8 1-10-5-4-4v-2l-3 1-1-9 6-11 2-2h3l1-4 8-6z" fill="#0BA8F8"/>
<path transform="translate(875,697)" d="m0 0 5 3 15 15 17 13 14 9 15 7 13 2-4 1v6h-8l-15-5-14-8-10-8-2-3-4-2v-2l-4-2-10-9-4-4v-2l-7 1-11 9-10 10-1-6-6 4-3-1 13-12 12-10z" fill="#F0FEFB"/>
<path transform="translate(913,541)" d="m0 0 6 1 6 2 3-1 7 8 8 7 2 3-10 16-7 10h-3l-7 1-3-2-1-6v-35z" fill="#0E94FC"/>
<path transform="translate(1125,1129)" d="m0 0 7 1 5 5 3 5 1 4v15l-3 7-5 6-2 1h-7l-5-5-3-5-2-10 1-11 3-8 5-4z" fill="#F7FCFD"/>
<path transform="translate(655,1131)" d="m0 0 7 1 5 5 3 6 1 5v9l-2 9-4 6-5 3-7-1-6-7-3-10v-11l4-10 5-4z" fill="#F6FBFD"/>
<path transform="translate(934,374)" d="m0 0 2 1-1 35-1 5-7 3-6 10-4 2-2-3-3-16-1-8 1-9 7-7 6-7z" fill="#1572FD"/>
<path transform="translate(717,536)" d="m0 0 1 3-3 4h-2v2l-6 2v4l7-2 5-2-9 9-1 32v32h-2l1 7-3 3-3-7-1-7-1-1-1-11-1-19-1-38 12-8z" fill="#0E93FC"/>
<path transform="translate(590,1255)" d="m0 0h9l6 4 4 6 1 10-3 7-4 5-3 2h-11l-8-7-2-5v-10l3-7z" fill="#29528D"/>
<path transform="translate(1210,1255)" d="m0 0h9l6 4 4 6 1 9-3 9-6 5-2 1h-9l-6-4-4-5-1-4v-8l3-7 6-5z" fill="#2C568F"/>
<path transform="translate(862,1255)" d="m0 0h8l6 3 4 5 2 10-2 8-5 6-4 2h-9l-5-3-4-5-2-4v-10l4-8z" fill="#2A518D"/>
<path transform="translate(1020,550)" d="m0 0h5l2 1 1 8-4 1h-5v2h-2l-1 7 4 2 1 3 8-6h4l-1 6-4 4 5 5 2 4 4-5 9-9 4 3v5l-16 16-4 5-4-1-2-3v-8l-2-3-11 1 1-5 2-4-5-2-4-6v-8l2-6 6-5z" fill="#FAFDFD"/>
<path transform="translate(545,692)" d="m0 0 5 1 1 5-4 4h-2v2l4 2 3 1 7-1 10 5 1 3v11l-3 5-8 3-6 1-5-4 1-4 7-1-4-7-10 1-5-2-5-6v-7l1-8 2-2 5 1z" fill="#EEF9F0"/>
<path transform="translate(799,647)" d="m0 0h6l1 6-7 8-1 7 5-4 5 2-3 5-3 3-1 3 7-4 1-2 5 1-1 5-4 3h5l10-8 6 1-1 7-8 7-7 2h-9l-5-1v2l-5-2v-5l-6-2-1-2h2l-2-7v-10l4-8 5-6z" fill="#EFFAF0"/>
<path transform="translate(1042,673)" d="m0 0 1 3-1 44-1 18h-1l-2-7v-4h-2l-1-2-4-1-1-4-5-4h-5l-1 3h-2l-2 4h-3l-1-3 5-9 10-16h2l2-4 5-7 3-1 1-4h2z" fill="#0E93FC"/>
<path transform="translate(558,623)" d="m0 0h19l12 2v1h-6l-1 3-7 1h-18l-16 4-10 4-10 7-10 8-10 10-8 10-9 13-2 4-1-2 1-9v-4l13-15 13-13 8-7 11-8 12-5 12-3z" fill="#EAFBFD"/>
<path transform="translate(824,622)" d="m0 0 8 2 4-1 10 5 11 7 5 5v2l4 1 5 4v2l3 1 6 8 2 2-1 4-10 2v2l-5 1-3-5-3-7-12-14-9-8-6-4-12-6v-2z" fill="#9ADB55"/>
<path transform="translate(624,747)" d="m0 0m-1 1m-1 1 5 1 1 3-2 5-10 9-12 15-11 18-8 15-6 14-1-3v-3l-6 1v-3h2l3-9 12-23 10-15 7-9z" fill="#F5FBFD"/>
<path transform="translate(694,1255)" d="m0 0h12l7 6v28l-6-1-3-1-4 2h-9l-4-3-2-6 1-6 4-4 14-3v-4l-6-1-6 1-3-2 1-4z" fill="#1079B9"/>
<path transform="translate(403,1093)" d="m0 0h13l6 2 5 5 2 5-1 9-4 6-3 2-5 1h-13z" fill="#F8FCFD"/>
<path transform="translate(1050,647)" d="m0 0 4 2 9 10 22 22v5l4 6-1 3-18-18-8-7-9-11h-3l-9 14-9 12-1-4-5 2-10 10v-3l7-8 3-5 5-5 14-19z" fill="#F0FEFD"/>
<path transform="translate(919,1254)" d="m0 0h7l3 3 5 16h4l2-9 3-9 1-1h6l1 3-10 30-5 12-6 5-9 1v-5l5-3 4-2v-8l-7-20-4-10z" fill="#305589"/>
<path transform="translate(510,1255)" d="m0 0h9l7 5 2 5v8l-20 1 2 6 3 2h8l5-1v5l-4 3h-13l-6-4-4-8v-10l4-8z" fill="#30588E"/>
<path transform="translate(1039,1255)" d="m0 0h8l6 3 3 5 1 10-20 1 1 5 4 3h9l4-1 1 3-3 4-3 1h-12l-6-4-4-8v-11l5-8z" fill="#2A5691"/>
<path transform="translate(690,803)" d="m0 0 6 4 1 2-1 156-5-2-1-4v-41l4-61v-8l-1-5-1-28v-5l-2-5z" fill="#C7F4FE"/>
<path transform="translate(709,972)" d="m0 0h7l22 6 25 5 15 2v2l18 1h28l18-2h5l2 4-4 2h-64l-2-2h-9l-18-2-23-6-17-5z" fill="#C3F1FD"/>
<path transform="translate(452,1254)" d="m0 0 7 2 2 2 5-3h8l6 5 1 2v27h-7l-2-26h-8l-2 1-1 24-1 1h-7l-1-1z" fill="#366C96"/>
<path transform="translate(1117,1254)" d="m0 0 8 1 1 25 1 2 9-1 1-2 1-24 2-1 6 1v34l-10-1-7 1-7-1-4-4-1-3z" fill="#2D588F"/>
<path transform="translate(1088,507)" d="m0 0 2 1-2 33-11-3-11-7v-2l-4-2-5-5-6-7v-2l15-2 3 1 3 3 3 2 7 2 6 2z" fill="#F2FFFE"/>
<path transform="translate(736,545)" d="m0 0h1l1 85 5 2-2 4-4 3-7-1-5 3h-2v2l-12 8-4 1-1-5 3-5 5-2 9-9 5-13 3-7 4-23z" fill="#0E93FC"/>
<path transform="translate(955,516)" d="m0 0h9l-5 4 1 2-24 3-13 1 3 5 8 7 9 9 2 4-1 4-4 1-11-10-7-8-15-15 6-2z" fill="#E8FAFD"/>
<path transform="translate(558,587)" d="m0 0 1 2-2 21 2 11 6 1v1l-14 2h-5l-2-7-5-2-2-3-1-11-2-1 18-12z" fill="#09B5F7"/>
<path transform="translate(1074,1280)" d="m0 0h3v3l12-1 9 3 3 4v6l-4 6-8 4h-14l-5-6-1-6 5-6-1-6z" fill="#2F568E"/>
<path transform="translate(554,582)" d="m0 0 2 1-1 3-7 5-5 5-15 10-14 9-3 2v29l-8 6 1-32 2-7 9-8 31-20z" fill="#C3F0FD"/>
<path transform="translate(657,709)" d="m0 0h7l6 4v10l1 2-19 5-5 2-1 2-7 2 4-4-1-11-4-1-2-1v-5l5-3z" fill="#9ADB55"/>
<path transform="translate(744,516)" d="m0 0h4l1 71 3 21 2 4h4l1-6 1-78h1v92l-5 4-7-1-1-2-3-63-3-15v-8l4-11 1-7-5 3-3-1z" fill="#03D2F4"/>
<path transform="translate(1047,894)" d="m0 0 3 1-3 1v5l-8 5-13 13h-4v2l-9 7-11 6-8 6-13 8-15 8h-9l-1-2 19-9 22-13 24-18 11-9 8-7h3l1-3zm-81 57 1 2z" fill="#ACECFD"/>
<path transform="translate(647,596)" d="m0 0h1l1 36h3l5-14 2 1v52l-8-6-5-4z" fill="#03D1F4"/>
<path transform="translate(817,602)" d="m0 0h12l14 5 9 4v2l5 2 16 10 11 7 3 8h-6l-13-10-20-12-4-3-9-3-11-4-9-3 2-1z" fill="#F7FDFD"/>
<path transform="translate(826,1242)" d="m0 0h8l1 4-1 43h-5l-3-2-4 1-7 1-5-3-2-6 13 2 4-3 1-19z" fill="#0872B8"/>
<path transform="translate(741,512)" d="m0 0h7l-5 6-16 10-13 9-16 10h-2v27l-2-3-1-2-1-18v-8l8-7 22-13 9-6z" fill="#C2F1FD"/>
<path transform="translate(997,1255)" d="m0 0h11l4 4-1 4-12-1 1 4 10 6 3 4v6l-3 5-5 2h-9l-6-1-1-7 2-1 4 2h8l1-4-12-7-2-3v-8l5-4z" fill="#2E5C92"/>
<path transform="translate(852,732)" d="m0 0h1v16l-1 27h-1l-1-11-2 1-6 12-5 1-4-4v-8l4-12 5-8 9-2z" fill="#09B5F7"/>
<path transform="translate(381,1253)" d="m0 0h11l5 4 1 4v13l-3 5-7 3-7-1z" fill="#F2FAF0"/>
<path transform="translate(959,341)" d="m0 0 10 1 7 2v1l-26 1-5 1-43 43h-4l1-5 8-10h2l1-3 8-7h2v-2l3-3h2l2-4 9-9 6-4z" fill="#C2EFFD"/>
<path transform="translate(638,661)" d="m0 0 7 2 8 6 4 1v2l4 2 8 8 8 7 3 4 6-1 6-6h5l-1 4-9 7-6 3h-5l-7-8-10-10-8-7-13-12z" fill="#FBFEFE"/>
<path transform="translate(936,422)" d="m0 0h1l2 37 3 17 3 23 2 14v5h-7l1-2-4-8-1-22z" fill="#0BA8F7"/>
<path transform="translate(907,725)" d="m0 0 11 7 10 6 13 6 13 2-4 1v6h-8l-15-5-14-8-10-8 2-4z" fill="#E7FAFC"/>
<path transform="translate(1095,619)" d="m0 0h1v32l-1 48-4-1-2-2-3-8-2-4 2-2 2 1v-33l3-3h3z" fill="#F2FEFE"/>
<path transform="translate(652,1254)" d="m0 0 5 1 2 3 4-1 2-2 6-1 1 4-2 5-9 3-1 6v16l-1 1h-7l-1-6v-28z" fill="#0975BC"/>
<path transform="translate(927,366)" d="m0 0 1 2-6 9-6 7-2 4 6-2-6 7-1 1-2 23-4 9-1 7h-1l-1-15v-24l2-5 5-3 5-8h-3l11-11z" fill="#0F92FD"/>
<path transform="translate(746,1255)" d="m0 0h8l6 7 2 8-1 10-5 8-2 1h-7l-5-1-1-7h11v-18l-9-3z" fill="#2D5289"/>
<path transform="translate(545,1254)" d="m0 0 5 1 2 3 5-1 3-2h6l-1 6-5 3-6 3-1 22h-8z" fill="#0B72B7"/>
<path transform="translate(1166,1254)" d="m0 0 5 2 1 2 5-1 3-2h5l1 3-3 5-9 4-1 22h-8v-34z" fill="#0881CB"/>
<path transform="translate(521,610)" d="m0 0 1 3-2 6v6l8 4 1 3-11 7-8 6v-28l9-6z" fill="#1187FC"/>
<path transform="translate(935,407)" d="m0 0h1l1 84 1 17 3 6v2l2 1-10 2-3-8-2-6 3-10 3-26z" fill="#0E93FC"/>
<path transform="translate(897,522)" d="m0 0h2v97l-3-1-2-13 1-45 1-16v-11l1-5-1-5z" fill="#C7F4FE"/>
<path transform="translate(643,734)" d="m0 0 4 1 7 14 6 9-1 2-7-8h-6l-3-5v-2l-9 6-7 5v-5l-4-2 2-4 3-1 2-3h3l2-4z" fill="#E6FAF7"/>
<path transform="translate(944,1254)" d="m0 0h6l1 3-10 30-2 5-1-2-4-2-1-11-2-1-3-12v-7l2 4 4 12h4l2-9 3-9z" fill="#0673BC"/>
<path transform="translate(887,671)" d="m0 0 16 2 7 6v2h2l1-2 2 6-15-1-11 3-2-1v-5l-8-6v-3z" fill="#99DA55"/>
<path transform="translate(599,599)" d="m0 0h12l5 1 9-1h11l7 1v3l-2 1-20 2-20 1h-13l-4-2 10-5z" fill="#147DFE"/>
<path transform="translate(528,1158)" d="m0 0h9l6 3 1 2v6l-5 5-8 1-7-3-2-3v-6l4-4z" fill="#F3FAFB"/>
<path transform="translate(373,1248)" d="m0 0 2 3v29l1-3v-21l1-5 11-1 6 3-2 1-11-1v28h7l7-3 3-4 1 4-1 2-6 3-4 1-1 1h-7l-6-2v5l11-1v2h-12z" fill="#0471BB"/>
<path transform="translate(1212,1261)" d="m0 0 7 1 3 4 1 7-3 7-3 3-7-1-3-4v-12z" fill="#F1FAEF"/>
<path transform="translate(426,1254)" d="m0 0h6l1 1v34h-8v-34z" fill="#0D78BD"/>
<path transform="translate(780,1254)" d="m0 0h6l1 1v34h-7l-1-2v-32z" fill="#0D73B8"/>
<path transform="translate(730,525)" d="m0 0h5l1 3-5 5-3 4h-2l1 2 5-1-3 3-14 8-6 3-3-1 1-4 6-2v-2h2l2-6-6 2 3-3z" fill="#0BAAF7"/>
<path transform="translate(544,594)" d="m0 0 4 1-1 4v7l5 17-1 2h-5l-2-7-5-2-2-3-1-11-2-1z" fill="#0BA9F7"/>
<path transform="translate(900,519)" d="m0 0h1l1 44 1 14v25l1 2-1 4 5 1v2l2 1-9 12h-1z" fill="#1571FB"/>
<path transform="translate(864,1262)" d="m0 0h6l4 5v10l-4 5-6 1-4-4v-13z" fill="#F4FBF2"/>
<path transform="translate(557,586)" d="m0 0h6l-2 5v19l2 4 7 1 1-18h1l1 9v17h-8l-7-2-2-13 2-20-3-1z" fill="#03D2F4"/>
<path transform="translate(593,1262)" d="m0 0 6 1 3 5v9l-5 5-4 1-5-4-1-10 2-5z" fill="#F2FAEF"/>
<path transform="translate(1022,1130)" d="m0 0h7l5 2 4 4-1 5h-25l-1-4 7-6z" fill="#EFF8FD"/>
<path transform="translate(1139,1254)" d="m0 0 7 1v30h-2v-2l-4 1-1-3h-2l1-26z" fill="#0C72B9"/>
<path transform="translate(840,558)" d="m0 0h1l1 32 2 5 5 1 3-1 2 7v9l-2 1-14-6 2-1z" fill="#03D3F4"/>
<path transform="translate(816,1263)" d="m0 0h7l3 2v14l-5 4-5-1-2-2-1-11 2-5z" fill="#F3FAF1"/>
<path transform="translate(997,1255)" d="m0 0h11l4 4-1 4-12-1 1 4 2 1-2 6-3 1-6-4-1-2v-8l5-4z" fill="#335F91"/>
<path transform="translate(697,1268)" d="m0 0 6 1-3 4-5 1v9h10l-1 4-4 2h-9l-4-3-2-6 1-6 4-4z" fill="#2B5692"/>
<path transform="translate(746,1261)" d="m0 0 4 1 2 1 1 3v12l-1 3-7 1-4-4v-13z" fill="#F4FBF4"/>
<path transform="translate(798,608)" d="m0 0h20l6 2-2 4-8 5-9 1-3-7-3-1-9-1 3-2z" fill="#9ADB55"/>
<path transform="translate(561,631)" d="m0 0h9l13 2 3 6-5 1-16 1-4-2-3-3v-2l-7-1v-1z" fill="#9ADB55"/>
<path transform="translate(751,977)" d="m0 0h10l7 2 21 2 7 3v1h-26l-27-5v-1l7-1z" fill="#1660FE"/>
<path transform="translate(934,357)" d="m0 0h2l-1 9-4 7 3 2-6 4-11 9h-3l2-6 7-7 4-8-2-1z" fill="#0BA9F7"/>
<path transform="translate(1126,1139)" d="m0 0 5 1 2 3v11l-4 6-4-1-3-6v-9l2-4z" fill="#F2FFFE"/>
<path transform="translate(1079,1289)" d="m0 0h14l2 5-1 3-6 3h-10l-2-2 1-7z" fill="#F1FAEF"/>
<path transform="translate(654,1143)" d="m0 0h5l3 4 1 8-3 6-4 1-4-4-1-9z" fill="#F2FFFE"/>
<path transform="translate(1045,818)" d="m0 0 2 2 1 14v8l-1 7-1 1v23l-2 1-1-11v-42z" fill="#ABEFFE"/>
<path transform="translate(638,661)" d="m0 0 7 2 8 6 4 1v2l4 2 8 8 6 5-2 1-9-7-9-2-8-8-8-7z" fill="#FBFEFE"/>
<path transform="translate(1166,1254)" d="m0 0 5 2 3 4h-3v18l-1 3 2 3v4h-6l-1-33z" fill="#31497F"/>
<path transform="translate(508,647)" d="m0 0m-1 1m-1 1m-1 1m-1 1m-1 1m-1 1m-1 1m-1 1m-1 1m-1 1m-1 1m-1 1m-1 1m-1 1m-1 1m-1 1m7 0v3l-10 12-5 8-2 4-1-2 1-9v-4l9-11h6z" fill="#F8FDFB"/>
<path transform="translate(737,575)" d="m0 0h1l1 26 2 19 3 5 4 3-2 4-3 1-6-3z" fill="#0BA8F7"/>
<path transform="translate(452,1254)" d="m0 0 7 2 2 2 2 1-3 4-1 13-2-2-1 8h-1v-13h-2v19h-1z" fill="#0B72B7"/>
<path transform="translate(826,1258)" d="m0 0 3 1v15l-3 9-4 5-7 1-5-3-2-6 13 2 4-3z" fill="#2B5690"/>
<path transform="translate(652,1254)" d="m0 0 5 1 2 3 4-1 2-2 6-1 1 4-2 5-13 4-3-4v-6h-2z" fill="#2A518C"/>
<path transform="translate(988,732)" d="m0 0v3l-5 7-10 6-5 4-6 3-9 3v-3h-8l-5-1 2-2h15l10-4 12-8z" fill="#166FFE"/>
<path transform="translate(944,1254)" d="m0 0h6l1 3-7 21-3 3-2-3 2-11 4-10h-2z" fill="#2E538A"/>
<path transform="translate(840,985)" d="m0 0h12v6h-5l1-2-1-2-15 1-8 1h-28l-18-2v-1h46z" fill="#ACE6FD"/>
<path transform="translate(925,539)" d="m0 0 6 1 12 8 2 3-1 4-4 1-11-10-4-5z" fill="#F4FBFE"/>
<path transform="translate(647,751)" d="m0 0h5l7 8 4 3v5l-3 4-5-5-8-12z" fill="#F4FAFD"/>
<path transform="translate(1081,1260)" d="m0 0h7l2 2v9l-3 3h-5l-2-2v-11z" fill="#F1FAEE"/>
<path transform="translate(1187,1176)" d="m0 0h7v20l-5-2-2 2z" fill="#F3FCFE"/>
<path transform="translate(1088,678)" d="m0 0 5 1 1 1v15h-5l-4-8-1-3 2-2 2 1z" fill="#FCFEFE"/>
<path transform="translate(711,1260)" d="m0 0 2 1v28h-4l-1-3v-9h2l-2-5v-3l-3-1h3l1-3h1z" fill="#2A4D88"/>
<path transform="translate(1120,1257)" d="m0 0h5l1 25-5-1-1-6z" fill="#056DB5"/>
<path transform="translate(746,638)" d="m0 0 2 1-45 45v-3l16-17 11-11 8-7z" fill="#99DB63"/>
<path transform="translate(453,1269)" d="m0 0 4 1 1 5h2v14h-7z" fill="#2C4782"/>
<path transform="translate(480,1262)" d="m0 0h1v27h-7l1-3v2h5l-2-4v-5h-2v-16h3z" fill="#0471BB"/>
<path transform="translate(901,588)" d="m0 0h1l1 9v5l1 2-1 4 5 1v2l2 1-7 10-2-1z" fill="#1669FB"/>
<path transform="translate(701,1273)" d="m0 0h4v8l-6 3-5-1v-7l1-2z" fill="#EBF8E6"/>
<path transform="translate(356,1092)" d="m0 0h9l1 1v79l-5 1 3-2v-72l-1-5-7-1z" fill="#25B0F5"/>
<path transform="translate(705,1269)" d="m0 0h3l2 5-1 4v10l-6-2 1-2-2-2 2-1 1-8-8 1 3-2-2-2h6z" fill="#0B78BE"/>
<path transform="translate(905,544)" d="m0 0 3 3 1 19 1 8v7l-3-1-2-13z" fill="#137DFD"/>
<path transform="translate(635,652)" d="m0 0 7 4 12 11 3 3-6-1-7-6-8-1z" fill="#E2F8FD"/>
<path transform="translate(897,387)" d="m0 0 1 3 3 1-2 28-2-1-2-11 2-12-1-5z" fill="#B0E4FD"/>
<path transform="translate(512,1260)" d="m0 0 7 1 4 5v1l-8 1-8-1 2-5z" fill="#E9F7E3"/>
<path transform="translate(657,657)" d="m0 0 2 1v13l-8-6-5-4 1-3 1 2 8-2z" fill="#09B3F6"/>
<path transform="translate(699,804)" d="m0 0h5l7 5 2 5-10-2-6-3 1-4z" fill="#F9FCFC"/>
<path transform="translate(1041,1260)" d="m0 0 7 1 3 5v1l-13 1-2-1 1-4z" fill="#ECF8E8"/>
<path transform="translate(483,1160)" d="m0 0 5 1 1 18-6-1z" fill="#E0F4F3"/>
<path transform="translate(803,981)" d="m0 0h17l1 3h5v1h-25l-3-2z" fill="#175DFF"/>
<path transform="translate(959,341)" d="m0 0 10 1 7 2v1l-31 1v-3z" fill="#AEE6FD"/>
<path transform="translate(927,366)" d="m0 0 1 2-6 9-5 5h-2v-3l-2-1 11-11z" fill="#0E96FC"/>
<path transform="translate(567,857)" d="m0 0h1l1 10-2 5-1 6 2 3-4-2-3-4 3-10z" fill="#2C78FE"/>
<path transform="translate(1180,1255)" d="m0 0h5l1 3-3 5-6 2h-4l2-5z" fill="#316094"/>
<path transform="translate(758,1108)" d="m0 0h1l1 62 5 2v1h-7z" fill="#0DA0F9"/>
<path transform="translate(908,522)" d="m0 0h11l2 6-4 2-5-2-5-5z" fill="#F3FBFD"/>
<path transform="translate(1099,479)" d="m0 0 7 3 3 7h2l3 9-1 2-10-13-4-6z" fill="#AEE2FD"/>
<path transform="translate(669,1254)" d="m0 0 3 1-1 7-2-1-10 2v-3h-2l1-4 1 2 4-1 2-2z" fill="#1973AE"/>
<path transform="translate(1020,698)" d="m0 0 2 1-8 10-10 10v2l-8 7h-3l11-12 7-7z" fill="#1576FD"/>
<path transform="translate(939,580)" d="m0 0 1 2-7 11-12 16-7 9v-3l13-18 11-16z" fill="#A5E07E"/>
<path transform="translate(655,670)" d="m0 0h2v2l4 2 8 8 6 5-2 1-9-7-8-3z" fill="#F2FFFE"/>
<path transform="translate(799,647)" d="m0 0h6l1 6-2 2v-2l-7 1-6 3 2-4 4-5z" fill="#D1F4F5"/>
<path transform="translate(916,377)" d="m0 0v3l-6 8-5 3-3 3-1-4 11-11z" fill="#137EFD"/>
<path transform="translate(452,1254)" d="m0 0 6 1-1 6-2-1-2 28h-1z" fill="#1B5E9E"/>
<path transform="translate(562,877)" d="m0 0 7 6 3 3v5l1 2-4-2-7-8z" fill="#C5F0FD"/>
<path transform="translate(702,1242)" d="m0 0h8l-1 3-6 5-7 1 2-4z" fill="#336C9D"/>
<path transform="translate(549,1270)" d="m0 0h1l1 12h1v6h-6v-14l1 4 1-2z" fill="#2F427C"/>
<path transform="translate(635,749)" d="m0 0h3v2h-3l-2 4-8 7-6 4-4 3 2-4 14-13z" fill="#1285FC"/>
<path transform="translate(697,1268)" d="m0 0 6 1-3 4-5 1-1 3-1-3-4 1-2-1v-2l6-3z" fill="#315B8C"/>
<path transform="translate(961,751)" d="m0 0 2 1-2 4-8 2v-3h-8l-5-1 2-2h15z" fill="#1572FD"/>
<path transform="translate(970,596)" d="m0 0 10 6 16 16h-3l-8-8-14-11z" fill="#73CC0F"/>
<path transform="translate(688,1273)" d="m0 0 5 1 1 4-1 6h-2l-1-5h-2l1 4h-3l-1-7z" fill="#0F77B5"/>
<path transform="translate(906,1130)" d="m0 0 6 1v41l-5 1 3-3v-37z" fill="#46AFFC"/>
<path transform="translate(826,1258)" d="m0 0 3 1v15l-1 5h-2z" fill="#265493"/>
<path transform="translate(578,616)" d="m0 0 9 3 3 5h-8l-4-2-1-4z" fill="#147DFE"/>
<path transform="translate(753,1267)" d="m0 0 3 4v2h2v5l-3 1-1 3-4 2-4-2 6-1z" fill="#0472BC"/>
<path transform="translate(840,985)" d="m0 0h12v6h-5l1-2-1-2-17 1-6-1v-1z" fill="#AFDEFD"/>
<path transform="translate(783,1242)" d="m0 0 4 1v6l-1 1h-6l-1-5 1-2z" fill="#275E9B"/>
<path transform="translate(426,1243)" d="m0 0h6l1 1v5l-1 1h-6l-1-1v-5z" fill="#225F9D"/>
<path transform="translate(697,658)" d="m0 0h1l1 11 5 1-2 4-5 5z" fill="#1370F5"/>
<path transform="translate(1043,396)" d="m0 0 3 1-1 2-1 43h-1z" fill="#AEE2FD"/>
<path transform="translate(475,1268)" d="m0 0h1v11h2l2 9h-5l-1-5z" fill="#2F427C"/>
<path transform="translate(928,1257)" d="m0 0 2 4 4 12h3l-1 5-1-2-3 1-2-5-2-8z" fill="#2C92C5"/>
<path transform="translate(397,1258)" d="m0 0 6 5v5l-2 4-3 2z" fill="#0578C2"/>
<path transform="translate(661,559)" d="m0 0 1 3-1 9-4-2-1-9z" fill="#AEE2FD"/>
<path transform="translate(667,586)" d="m0 0 2 1 1 10-3 2-2-7z" fill="#B1D5FE"/>
<path transform="translate(852,613)" d="m0 0 5 2 15 9-3 1-14-7z" fill="#F2FFFE"/>
<path transform="translate(571,597)" d="m0 0h1l1 9v17h-7l3-2h2z" fill="#0AAFF8"/>
<path transform="translate(969,948)" d="m0 0 1 3-5 3-4 2-5-1 4-3z" fill="#AFE0FD"/>
<path transform="translate(1045,494)" d="m0 0h1l2 7-3 3 5 1v1h-8l1-10h2z" fill="#B2E4FD"/>
<path transform="translate(572,887)" d="m0 0 6 5-1 5-4-2-2-4z" fill="#AEE2FD"/>
<path transform="translate(1115,501)" d="m0 0h3v2l4-1 1 7-7-3z" fill="#AEE1FD"/>
<path transform="translate(562,870)" d="m0 0h3l2 2-1 6 2 3-4-2-3-4z" fill="#2374FD"/>
<path transform="translate(511,637)" d="m0 0h6l-1 4-6 4v-7z" fill="#166CFD"/>
<path transform="translate(1e3 1268)" d="m0 0 5 2-4 4 2 4-6-3v-5z" fill="#0A7BC1"/>
<path transform="translate(503,1269)" d="m0 0h2l1 3 2 2 1 6-4-1-2-4z" fill="#1078BB"/>
<path transform="translate(827,1243)" d="m0 0h8v3l-3 1v-2h-3l-1 12h-1z" fill="#394F7D"/>
<path transform="translate(1020,698)" d="m0 0 2 1-8 10-5 5-2-1 11-12z" fill="#1570FD"/>
<path transform="translate(859,1266)" d="m0 0h1v12h-3l-1-5 1-6z" fill="#087BC5"/>
<path transform="translate(834,732)" d="m0 0v3l-6 7-6 5-2-1z" fill="#F2FFFE"/>
<path transform="translate(1020,550)" d="m0 0h5l2 1-1 3h-13l2-2z" fill="#E4FBFE"/>
<path transform="translate(545,1254)" d="m0 0 5 1v5l-2-1-1 5h-2z" fill="#2C5089"/>
<path transform="translate(902,723)" d="m0 0 5 1-1 4-4 2-2-4z" fill="#F9FDFA"/>
<path transform="translate(824,672)" d="m0 0 6 1v5l-10-2z" fill="#D8F6E2"/>
<path transform="translate(942,1257)" d="m0 0h3l-3 10-3 5-1-2z" fill="#0779C3"/>
<path transform="translate(1030,907)" d="m0 0 2 1-5 6-8 4 2-4z" fill="#BCEBFD"/>
<path transform="translate(557,715)" d="m0 0 4 1 1 3-4 1-1 5-3-4-1-3 6 1z" fill="#90D9D9"/>
<path transform="translate(959,341)" d="m0 0 10 1-3 2h-14l3-2z" fill="#C8F4FE"/>
<path transform="translate(1042,671)" d="m0 0 1 2-2 6h-2v2l-4 1 2-5z" fill="#1573FD"/>
<path transform="translate(833,1281)" d="m0 0h1v8h-5l-1-4h4z" fill="#2B5891"/>
<path transform="translate(758,982)" d="m0 0h13l4 2v1l-12-1-5-1z" fill="#137BFD"/>
<path transform="translate(1087,1278)" d="m0 0 2 1-1 3-4 1-5-1v-2z" fill="#E4F6DD"/>
<path transform="translate(571,882)" d="m0 0 3 1v2h2l2 5-4-1-4-4z" fill="#156EFD"/>
<path transform="translate(668,771)" d="m0 0h2l5 7-7-1-1-5z" fill="#F3FBF5"/>
<path transform="translate(1044,880)" d="m0 0 4 4-1 4-3 1-1-7z" fill="#ABEFFE"/>
<path transform="translate(639,704)" d="m0 0m-5 1h5l-4 3-12 3 1-2z" fill="#AAE38D"/>
<path transform="translate(585,1268)" d="m0 0 3 4v6h-3l-1-5z" fill="#0575BF"/>
<path transform="translate(758,1158)" d="m0 0h1l1 12 5 2v1h-7z" fill="#61C4F6"/>
<path transform="translate(1076,1138)" d="m0 0 1 4-2 7h-5l1-4h3z" fill="#DCF2FD"/>
<path transform="translate(543,1132)" d="m0 0 2 2-1 7h-3l-6-3 2-1 6 1z" fill="#A2D9F9"/>
<path transform="translate(446,1130)" d="m0 0h2l1 5 1 2-5-2-4-3z" fill="#E5F5FD"/>
</svg>
